<?xml version="1.0"?>
<svg width="130.024" height="50.80299999999999" xmlns="http://www.w3.org/2000/svg" xmlns:svg="http://www.w3.org/2000/svg" enable-background="new 10.825 4.045 139.024 130.803" version="1.1" xml:space="preserve">
 <g class="layer">
  <title>Layer 1</title>
  <path d="m142.63,89.85" fill="none" id="svg_29" stroke="#0A990A" stroke-linecap="round" stroke-linejoin="round" stroke-miterlimit="8" stroke-width="1.25"/>
  <path d="m137.44,84.77" fill="none" id="svg_30" stroke="#0A990A" stroke-linecap="round" stroke-linejoin="round" stroke-miterlimit="8" stroke-width="1.25"/>
  <path d="m139.15,86.77" fill="none" id="svg_31" stroke="#0A990A" stroke-linecap="round" stroke-linejoin="round" stroke-miterlimit="8" stroke-width="1.25"/>
  <path d="m2.62,49.31l31,-48.05l93.01,0l-31,48.05l-93.01,0z" fill="#aaaaff" fill-opacity="0.55" id="svg_1" stroke="#5f00bf" stroke-linecap="round" stroke-linejoin="round" transform="matrix(1 0 0 1 0 0)">α</path>
  <ellipse cx="33.44" cy="28.58" fill="#aaaaff" id="svg_4" rx="0.68" ry="0.45" stroke="#5f00bf" stroke-linecap="round" stroke-linejoin="round"/>
  <ellipse cx="67.42" cy="16.28" fill="#aaaaff" id="svg_5" rx="0.68" ry="0.45" stroke="#5f00bf" stroke-linecap="round" stroke-linejoin="round"/>
  <ellipse cx="85.2" cy="37.44" fill="#aaaaff" id="svg_6" rx="0.68" ry="0.45" stroke="#5f00bf" stroke-linecap="round" stroke-linejoin="round"/>
  <g id="svg_7">
   <g id="svg_17">
    <path d="m40.18,17.22l-0.57,6.94c-0.03,0.32 -0.04,0.53 -0.04,0.64c0,0.16 0.03,0.29 0.08,0.37c0.07,0.12 0.17,0.21 0.29,0.27c0.12,0.06 0.32,0.08 0.6,0.08l-0.06,0.23l-2.95,0l0.06,-0.23l0.13,0c0.24,0 0.43,-0.06 0.59,-0.17c0.1,-0.08 0.18,-0.2 0.24,-0.38c0.04,-0.13 0.08,-0.43 0.12,-0.9l0.09,-1.06l-2.15,0l-0.76,1.15c-0.17,0.25 -0.28,0.44 -0.32,0.56c-0.04,0.11 -0.07,0.22 -0.07,0.32c0,0.13 0.04,0.25 0.14,0.34s0.26,0.15 0.48,0.16l-0.06,0.23l-2.22,0l0.06,-0.23c0.27,-0.02 0.51,-0.11 0.72,-0.3c0.21,-0.19 0.52,-0.6 0.93,-1.22l4.48,-6.78l0.2,0l0,0l-0.01,-0.02zm-1.1,2.05l-2.18,3.29l1.88,0l0.29,-3.29l0.01,0z" fill="#3f007f" id="svg_18"/>
   </g>
  </g>
  <g id="svg_19">
   <g id="svg_20">
    <path d="m69.72,6.18l0.08,-0.19l2.81,0c0.47,0 0.89,0.07 1.27,0.19c0.37,0.13 0.65,0.31 0.83,0.55c0.19,0.23 0.28,0.48 0.28,0.74c0,0.4 -0.17,0.76 -0.49,1.08c-0.33,0.32 -0.86,0.56 -1.6,0.72c0.48,0.16 0.83,0.36 1.06,0.62s0.33,0.55 0.33,0.86c0,0.34 -0.1,0.67 -0.3,0.99c-0.2,0.31 -0.46,0.55 -0.77,0.73c-0.32,0.17 -0.69,0.3 -1.14,0.38c-0.32,0.06 -0.81,0.09 -1.49,0.09l-2.89,0l0.08,-0.19c0.3,-0.01 0.5,-0.03 0.62,-0.07c0.15,-0.05 0.26,-0.13 0.33,-0.23c0.09,-0.13 0.22,-0.42 0.37,-0.89l1.41,-4.2c0.12,-0.35 0.18,-0.61 0.18,-0.75c0,-0.12 -0.05,-0.22 -0.16,-0.29c-0.11,-0.07 -0.31,-0.12 -0.6,-0.12c-0.07,0 -0.13,0 -0.19,0l-0.02,-0.02zm0.04,6.3c0.42,0.05 0.75,0.07 0.98,0.07c0.6,0 1.14,-0.16 1.6,-0.48c0.47,-0.32 0.7,-0.76 0.7,-1.3c0,-0.42 -0.15,-0.75 -0.43,-0.99c-0.29,-0.23 -0.76,-0.35 -1.4,-0.35c-0.12,0 -0.28,0 -0.46,0.01l-1,3.03l0.01,0.01zm1.14,-3.42c0.25,0.01 0.44,0.01 0.55,0.01c0.8,0 1.4,-0.16 1.8,-0.46s0.59,-0.7 0.59,-1.16c0,-0.35 -0.12,-0.63 -0.36,-0.82c-0.24,-0.19 -0.62,-0.29 -1.15,-0.29c-0.14,0 -0.32,0.02 -0.53,0.06l-0.89,2.66l-0.01,0z" fill="#3f007f" id="svg_21"/>
   </g>
  </g>
  <g id="svg_22">
   <g id="svg_23">
    <path d="m91.38,26.02l-0.51,2.46l-0.18,0l-0.02,-0.61c-0.02,-0.22 -0.05,-0.43 -0.11,-0.6c-0.06,-0.17 -0.15,-0.33 -0.27,-0.46s-0.27,-0.23 -0.46,-0.3c-0.18,-0.07 -0.39,-0.11 -0.61,-0.11c-0.6,0 -1.13,0.19 -1.58,0.55c-0.58,0.47 -1.02,1.13 -1.35,1.98c-0.27,0.7 -0.4,1.41 -0.4,2.13c0,0.73 0.19,1.32 0.58,1.76c0.39,0.44 0.89,0.66 1.51,0.66c0.47,0 0.88,-0.11 1.25,-0.34s0.71,-0.59 1.02,-1.07l0.24,0c-0.37,0.66 -0.78,1.13 -1.23,1.45c-0.45,0.31 -0.99,0.46 -1.61,0.46c-0.56,0 -1.05,-0.13 -1.49,-0.4c-0.43,-0.26 -0.76,-0.62 -0.98,-1.09s-0.33,-0.99 -0.33,-1.52c0,-0.83 0.2,-1.63 0.6,-2.42c0.4,-0.78 0.95,-1.4 1.65,-1.85c0.69,-0.45 1.4,-0.67 2.1,-0.67c0.33,0 0.71,0.08 1.12,0.26c0.18,0.07 0.31,0.11 0.39,0.11c0.08,0 0.15,-0.01 0.21,-0.05c0.06,-0.04 0.16,-0.14 0.3,-0.32l0.19,0l-0.03,-0.01z" fill="#3f007f" id="svg_24"/>
   </g>
  </g>
  <text fill="#3f007f" fill-opacity="0.55" font-family="Serif" font-size="8" id="svg_2" opacity="0.9" stroke="#5f00bf" stroke-linecap="round" stroke-linejoin="round" stroke-width="0" text-anchor="middle" transform="matrix(1 0 0 1 0 0)" x="-1.41" xml:space="preserve" y="36.35"/>
  <text fill="#3f007f" font-family="Serif" font-size="11" font-style="italic" id="svg_3" opacity="0.9" stroke="#5f00bf" stroke-linecap="round" stroke-linejoin="round" stroke-width="0" text-anchor="middle" x="11.86" xml:space="preserve" y="46.16">α</text>
 </g>
</svg>