<?xml version="1.0"?>
<svg width="130.024" height="50.80300000000001" xmlns="http://www.w3.org/2000/svg" xmlns:svg="http://www.w3.org/2000/svg" enable-background="new 10.825 4.045 139.024 130.803" version="1.1" xml:space="preserve">
 <g class="layer">
  <title>Layer 1</title>
  <path d="m149.85,134.85" fill="none" id="svg_29" stroke="#0A990A" stroke-linecap="round" stroke-linejoin="round" stroke-miterlimit="8" stroke-width="1.25"/>
  <path d="m144.66,129.77" fill="none" id="svg_30" stroke="#0A990A" stroke-linecap="round" stroke-linejoin="round" stroke-miterlimit="8" stroke-width="1.25"/>
  <path d="m146.37,131.77" fill="none" id="svg_31" stroke="#0A990A" stroke-linecap="round" stroke-linejoin="round" stroke-miterlimit="8" stroke-width="1.25"/>
  <path d="m2.04,49.62l31,-48.05l93.01,0l-31,48.05l-93.01,0z" fill="#aaaaff" fill-opacity="0.55" id="svg_1" stroke="#5f00bf" stroke-linecap="round" stroke-linejoin="round" transform="matrix(1 0 0 1 0 0)"/>
  <g id="svg_7">
   <g id="svg_17">
    <path d="m49.06,21.02l-0.57,6.94c-0.03,0.32 -0.04,0.53 -0.04,0.64c0,0.16 0.03,0.29 0.08,0.37c0.07,0.12 0.17,0.21 0.29,0.27c0.12,0.06 0.32,0.08 0.6,0.08l-0.06,0.23l-2.95,0l0.06,-0.23l0.13,0c0.24,0 0.43,-0.06 0.59,-0.17c0.1,-0.08 0.18,-0.2 0.24,-0.38c0.04,-0.13 0.08,-0.43 0.12,-0.9l0.09,-1.06l-2.15,0l-0.76,1.15c-0.17,0.25 -0.28,0.44 -0.32,0.56c-0.04,0.11 -0.07,0.22 -0.07,0.32c0,0.13 0.04,0.25 0.14,0.34s0.26,0.15 0.48,0.16l-0.06,0.23l-2.22,0l0.06,-0.23c0.27,-0.02 0.51,-0.11 0.72,-0.3c0.21,-0.19 0.52,-0.6 0.93,-1.22l4.48,-6.78l0.2,0l0,0l-0.01,-0.02zm-1.1,2.05l-2.18,3.29l1.88,0l0.29,-3.29l0.01,0z" fill="#3f007f" id="svg_18"/>
   </g>
  </g>
  <g id="svg_19">
   <g id="svg_20">
    <path d="m72.86,8.83l0.07,-0.19l2.37,0c0.4,0 0.75,0.07 1.07,0.19c0.31,0.13 0.55,0.31 0.7,0.55c0.16,0.23 0.24,0.48 0.24,0.74c0,0.4 -0.14,0.76 -0.41,1.08c-0.28,0.32 -0.73,0.56 -1.35,0.72c0.4,0.16 0.7,0.36 0.89,0.62s0.28,0.55 0.28,0.86c0,0.34 -0.08,0.67 -0.25,0.99c-0.17,0.31 -0.39,0.55 -0.65,0.73c-0.27,0.17 -0.58,0.3 -0.96,0.38c-0.27,0.06 -0.68,0.09 -1.26,0.09l-2.44,0l0.07,-0.19c0.25,-0.01 0.42,-0.03 0.52,-0.07c0.13,-0.05 0.22,-0.13 0.28,-0.23c0.08,-0.13 0.19,-0.42 0.31,-0.89l1.19,-4.2c0.1,-0.35 0.15,-0.61 0.15,-0.75c0,-0.12 -0.04,-0.22 -0.13,-0.29c-0.09,-0.07 -0.26,-0.12 -0.51,-0.12c-0.06,0 -0.11,0 -0.16,0l-0.02,-0.02zm0.03,6.3c0.35,0.05 0.63,0.07 0.83,0.07c0.51,0 0.96,-0.16 1.35,-0.48c0.4,-0.32 0.59,-0.76 0.59,-1.3c0,-0.42 -0.13,-0.75 -0.36,-0.99c-0.24,-0.23 -0.64,-0.35 -1.18,-0.35c-0.1,0 -0.24,0 -0.39,0.01l-0.84,3.03l0.01,0.01l-0.01,0zm0.96,-3.42c0.21,0.01 0.37,0.01 0.46,0.01c0.67,0 1.18,-0.16 1.52,-0.46s0.5,-0.7 0.5,-1.16c0,-0.35 -0.1,-0.63 -0.3,-0.82c-0.2,-0.19 -0.52,-0.29 -0.97,-0.29c-0.12,0 -0.27,0.02 -0.45,0.06l-0.75,2.66l-0.01,0z" fill="#3f007f" id="svg_21"/>
   </g>
  </g>
  <line fill="none" id="svg_3" stroke="#38d1d1" stroke-linecap="round" stroke-width="1.2" transform="matrix(1 0 0 1 0 0)" x1="31.88" x2="94.71" y1="42.56" y2="9.29"/>
  <ellipse cx="49.15" cy="33.33" fill="#aaaaff" id="svg_8" rx="0.68" ry="0.45" stroke="#5f00bf" stroke-linecap="round" stroke-linejoin="round"/>
  <text fill="#3f007f" font-family="Serif" font-size="8" font-style="italic" id="svg_2" opacity="0.9" stroke="#5f00bf" stroke-width="0" text-anchor="middle" transform="rotate(0.772197 12.5138 42.2846) matrix(1.39297 0 0 1.16491 -11.9049 -36.5908)" x="17.53" xml:space="preserve" y="70.39">α</text>
  <path d="m76.98,18.17c0,-0.25 0.3,-0.45 0.68,-0.45c0.38,0 0.68,0.2 0.68,0.45c0,0.25 -0.3,0.45 -0.68,0.45c-0.38,0 -0.68,-0.2 -0.68,-0.45z" fill="#aaaaff" id="svg_5" opacity="0.9" stroke="#5f00bf" stroke-linecap="round" stroke-linejoin="round"/>
 </g>
</svg>