<?xml version="1.0"?>
<svg width="185.525" height="167.322" xmlns="http://www.w3.org/2000/svg" xmlns:svg="http://www.w3.org/2000/svg" xmlns:xlink="http://www.w3.org/1999/xlink" enable-background="new 0 0 184.525 167.322" version="1.1" xml:space="preserve">
 <g class="layer">
  <title>Layer 1</title>
  <g id="svg_1">
   <g id="svg_2">
    <defs>
     <rect height="166.76" id="SVGID_1_" width="184.41" x="0.12"/>
    </defs>
    <clipPath id="SVGID_2_">
     <use id="svg_3" overflow="visible" xlink:href="#SVGID_1_"/>
    </clipPath>
    <g clip-path="url(#SVGID_2_)" id="svg_4"/>
   </g>
   <line fill="none" id="svg_5" stroke="#0D0F0F" stroke-linecap="round" stroke-linejoin="round" stroke-miterlimit="8" stroke-width="0.75" x1="11.57" x2="137.66" y1="150.35" y2="150.35"/>
   <line fill="none" id="svg_6" stroke="#0D0F0F" stroke-linecap="round" stroke-linejoin="round" stroke-miterlimit="8" stroke-width="0.75" x1="137.66" x2="137.66" y1="150.35" y2="100.95"/>
   <line fill="none" id="svg_7" stroke="#0D0F0F" stroke-linecap="round" stroke-linejoin="round" stroke-miterlimit="8" stroke-width="0.75" x1="137.66" x2="62.51" y1="100.95" y2="100.95"/>
   <line fill="none" id="svg_8" stroke="#0D0F0F" stroke-linecap="round" stroke-linejoin="round" stroke-miterlimit="8" stroke-width="0.75" x1="62.51" x2="62.51" y1="100.95" y2="50.44"/>
   <line fill="none" id="svg_9" stroke="#0D0F0F" stroke-linecap="round" stroke-linejoin="round" stroke-miterlimit="8" stroke-width="0.75" x1="11.57" x2="11.57" y1="150.35" y2="50.44"/>
   <line fill="none" id="svg_10" stroke="#0D0F0F" stroke-linecap="round" stroke-linejoin="round" stroke-miterlimit="8" stroke-width="0.75" x1="11.57" x2="62.51" y1="50.44" y2="50.44"/>
   <g id="svg_11">
    <g id="svg_12">
     <line fill="none" id="svg_13" stroke="#0D0F0F" stroke-linecap="round" stroke-linejoin="round" stroke-width="0.75" x1="11.57" x2="14.56" y1="150.35" y2="148.09"/>
     <line fill="none" id="svg_14" stroke="#0D0F0F" stroke-dasharray="6.7684,2.7074" stroke-linecap="round" stroke-linejoin="round" stroke-width="0.75" x1="16.73" x2="53.49" y1="146.46" y2="118.77"/>
     <line fill="none" id="svg_15" stroke="#0D0F0F" stroke-linecap="round" stroke-linejoin="round" stroke-width="0.75" x1="54.57" x2="57.56" y1="117.96" y2="115.7"/>
    </g>
   </g>
   <g id="svg_16">
    <g id="svg_17">
     <line fill="none" id="svg_18" stroke="#0D0F0F" stroke-linecap="round" stroke-linejoin="round" stroke-width="0.75" x1="57.56" x2="61.31" y1="115.7" y2="115.7"/>
     <line fill="none" id="svg_19" stroke="#0D0F0F" stroke-dasharray="7.5056,3.0022" stroke-linecap="round" stroke-linejoin="round" stroke-width="0.75" x1="64.32" x2="178.4" y1="115.7" y2="115.7"/>
     <line fill="none" id="svg_20" stroke="#0D0F0F" stroke-linecap="round" stroke-linejoin="round" stroke-width="0.75" x1="179.9" x2="183.65" y1="115.7" y2="115.7"/>
    </g>
   </g>
   <line fill="none" id="svg_21" stroke="#0D0F0F" stroke-linecap="round" stroke-linejoin="round" stroke-miterlimit="8" stroke-width="0.75" x1="183.65" x2="183.65" y1="115.7" y2="66.3"/>
   <line fill="none" id="svg_22" stroke="#0D0F0F" stroke-linecap="round" stroke-linejoin="round" stroke-miterlimit="8" stroke-width="0.75" x1="183.65" x2="108.51" y1="66.3" y2="66.3"/>
   <line fill="none" id="svg_23" stroke="#0D0F0F" stroke-linecap="round" stroke-linejoin="round" stroke-miterlimit="8" stroke-width="0.75" x1="108.51" x2="108.51" y1="66.3" y2="15.79"/>
   <g id="svg_24">
    <g id="svg_25">
     <line fill="none" id="svg_26" stroke="#0D0F0F" stroke-linecap="round" stroke-linejoin="round" stroke-width="0.75" x1="57.56" x2="57.56" y1="115.7" y2="111.95"/>
     <line fill="none" id="svg_27" stroke="#0D0F0F" stroke-dasharray="7.1081,2.8433" stroke-linecap="round" stroke-linejoin="round" stroke-width="0.75" x1="57.56" x2="57.56" y1="109.11" y2="20.97"/>
     <line fill="none" id="svg_28" stroke="#0D0F0F" stroke-linecap="round" stroke-linejoin="round" stroke-width="0.75" x1="57.56" x2="57.56" y1="19.55" y2="15.79"/>
    </g>
   </g>
   <line fill="none" id="svg_29" stroke="#0D0F0F" stroke-linecap="round" stroke-linejoin="round" stroke-miterlimit="8" stroke-width="0.75" x1="57.56" x2="108.51" y1="15.79" y2="15.79"/>
   <line fill="none" id="svg_30" stroke="#0D0F0F" stroke-linecap="round" stroke-linejoin="round" stroke-miterlimit="8" stroke-width="0.75" x1="137.66" x2="183.65" y1="150.35" y2="115.7"/>
   <line fill="none" id="svg_31" stroke="#0D0F0F" stroke-linecap="round" stroke-linejoin="round" stroke-miterlimit="8" stroke-width="0.75" x1="137.66" x2="183.65" y1="100.95" y2="66.3"/>
   <line fill="none" id="svg_32" stroke="#0D0F0F" stroke-linecap="round" stroke-linejoin="round" stroke-miterlimit="8" stroke-width="0.75" x1="62.51" x2="108.51" y1="100.95" y2="66.3"/>
   <line fill="none" id="svg_33" stroke="#0D0F0F" stroke-linecap="round" stroke-linejoin="round" stroke-miterlimit="8" stroke-width="0.75" x1="62.51" x2="108.51" y1="50.44" y2="15.79"/>
   <line fill="none" id="svg_34" stroke="#0D0F0F" stroke-linecap="round" stroke-linejoin="round" stroke-miterlimit="8" stroke-width="0.75" x1="11.57" x2="57.56" y1="50.44" y2="15.79"/>
   <g id="svg_35">
    <defs>
     <polygon id="SVGID_3_" points="78.268,15.743 89.914,15.743 89.914,0.143 78.268,0.143 78.268,15.743    "/>
    </defs>
    <clipPath id="SVGID_4_">
     <use id="svg_36" overflow="visible" xlink:href="#SVGID_3_"/>
    </clipPath>
    <g clip-path="url(#SVGID_4_)" id="svg_37">
     <path d="m87.18,11.32l-0.66,1.82l-5.57,0l0,-0.26c1.64,-1.5 2.79,-2.72 3.46,-3.67c0.67,-0.95 1,-1.82 1,-2.6c0,-0.6 -0.18,-1.1 -0.55,-1.48c-0.37,-0.39 -0.8,-0.58 -1.31,-0.58c-0.47,0 -0.88,0.13 -1.25,0.41s-0.64,0.67 -0.82,1.19l-0.25,0c0.11,-0.86 0.41,-1.52 0.89,-1.98c0.48,-0.46 1.08,-0.69 1.8,-0.69c0.76,0 1.4,0.25 1.91,0.74c0.51,0.49 0.77,1.08 0.77,1.75c0,0.47 -0.11,0.95 -0.33,1.43c-0.35,0.76 -0.9,1.56 -1.67,2.4c-1.16,1.27 -1.88,2.03 -2.16,2.29l2.46,0c0.5,0 0.85,-0.02 1.05,-0.06c0.2,-0.03 0.38,-0.11 0.55,-0.22s0.3,-0.28 0.42,-0.49l0.26,0z" fill="#0D0F0F" id="svg_38"/>
    </g>
   </g>
   <g id="svg_39">
    <defs>
     <polygon id="SVGID_5_" points="108.586,46.943 120.232,46.943 120.232,31.343 108.586,31.343 108.586,46.943    "/>
    </defs>
    <clipPath id="SVGID_6_">
     <use id="svg_40" overflow="visible" xlink:href="#SVGID_5_"/>
    </clipPath>
    <g clip-path="url(#SVGID_6_)" id="svg_41">
     <path d="m117.49,42.52l-0.66,1.82l-5.56,0l0,-0.26c1.64,-1.49 2.79,-2.72 3.45,-3.67c0.67,-0.95 1.01,-1.82 1.01,-2.6c0,-0.6 -0.19,-1.1 -0.55,-1.48s-0.81,-0.58 -1.32,-0.58c-0.46,0 -0.88,0.13 -1.25,0.41s-0.64,0.67 -0.81,1.19l-0.26,0c0.12,-0.86 0.41,-1.52 0.89,-1.98c0.48,-0.46 1.08,-0.69 1.8,-0.69c0.77,0 1.4,0.25 1.92,0.74c0.51,0.49 0.76,1.08 0.76,1.75c0,0.47 -0.11,0.95 -0.33,1.43c-0.34,0.76 -0.9,1.56 -1.67,2.4c-1.15,1.27 -1.87,2.03 -2.16,2.29l2.46,0c0.5,0 0.85,-0.02 1.06,-0.06c0.2,-0.03 0.38,-0.11 0.54,-0.22s0.3,-0.28 0.42,-0.49l0.26,0z" fill="#0D0F0F" id="svg_42"/>
    </g>
   </g>
   <g id="svg_43">
    <defs>
     <polygon id="SVGID_7_" points="26.479,31.343 38.125,31.343 38.125,15.743 26.479,15.743 26.479,31.343    "/>
    </defs>
    <clipPath id="SVGID_8_">
     <use id="svg_44" overflow="visible" xlink:href="#SVGID_7_"/>
    </clipPath>
    <g clip-path="url(#SVGID_8_)" id="svg_45">
     <path d="m35.49,25.25l0,0.99l-1.27,0l0,2.5l-1.15,0l0,-2.5l-3.99,0l0,-0.89l4.38,-6.27l0.76,0l0,6.17l1.27,0zm-2.41,0l0,-4.7l-3.31,4.7l3.31,0z" fill="#0D0F0F" id="svg_46"/>
    </g>
   </g>
   <g id="svg_47">
    <defs>
     <polygon id="SVGID_9_" points="0,103.623 11.646,103.623 11.646,88.023 0,88.023 0,103.623    "/>
    </defs>
    <clipPath id="SVGID_10_">
     <use id="svg_48" overflow="visible" xlink:href="#SVGID_9_"/>
    </clipPath>
    <g clip-path="url(#SVGID_10_)" id="svg_49">
     <path d="m9.01,97.52l0,0.99l-1.27,0l0,2.5l-1.14,0l0,-2.5l-3.99,0l0,-0.89l4.37,-6.27l0.76,0l0,6.17l1.27,0zm-2.41,0l0,-4.7l-3.31,4.7l3.31,0z" fill="#0D0F0F" id="svg_50"/>
    </g>
   </g>
   <g id="svg_51">
    <defs>
     <polygon id="SVGID_11_" points="68.964,167.322 80.61,167.322 80.61,150.423 68.964,150.423 68.964,167.322    "/>
    </defs>
    <clipPath id="SVGID_12_">
     <use id="svg_52" overflow="visible" xlink:href="#SVGID_11_"/>
    </clipPath>
    <g clip-path="url(#SVGID_12_)" id="svg_53">
     <path d="m77.08,153.95l-0.54,1.18l-2.84,0l-0.62,1.27c1.23,0.19 2.2,0.64 2.92,1.38c0.62,0.63 0.93,1.38 0.93,2.23c0,0.5 -0.11,0.96 -0.31,1.39c-0.2,0.42 -0.45,0.78 -0.76,1.08s-0.64,0.54 -1.02,0.72c-0.53,0.25 -1.08,0.38 -1.64,0.38c-0.57,0 -0.98,-0.09 -1.23,-0.29c-0.26,-0.19 -0.39,-0.4 -0.39,-0.64c0,-0.13 0.05,-0.24 0.16,-0.34c0.11,-0.1 0.24,-0.15 0.4,-0.15c0.12,0 0.23,0.02 0.32,0.05c0.09,0.04 0.24,0.14 0.46,0.29c0.35,0.24 0.7,0.36 1.06,0.36c0.54,0 1.02,-0.2 1.43,-0.61c0.41,-0.42 0.61,-0.92 0.61,-1.51c0,-0.57 -0.18,-1.11 -0.55,-1.6c-0.36,-0.5 -0.87,-0.88 -1.51,-1.15c-0.51,-0.21 -1.2,-0.33 -2.07,-0.36l1.81,-3.68l3.38,0z" fill="#0D0F0F" id="svg_54"/>
    </g>
   </g>
  </g>
  <g id="svg_55"/>
  <g id="svg_56"/>
  <g id="svg_57"/>
  <g id="svg_58"/>
  <g id="svg_59"/>
  <g id="svg_60"/>
 </g>
</svg>