<?xml version="1.0"?>
<svg width="169.734" height="117.45" xmlns="http://www.w3.org/2000/svg" xmlns:svg="http://www.w3.org/2000/svg" xmlns:xlink="http://www.w3.org/1999/xlink" enable-background="new 0 0 169.734 117.45" version="1.1" xml:space="preserve">
 <g class="layer">
  <title>Layer 1</title>
  <g id="svg_1">
   <g id="svg_2">
    <g id="svg_3">
     <defs>
      <rect height="20.61" id="SVGID_1_" width="16.98" x="78.39" y="21.94"/>
     </defs>
     <clipPath id="SVGID_2_">
      <use id="svg_4" overflow="visible" xlink:href="#SVGID_1_"/>
     </clipPath>
     <g clip-path="url(#SVGID_2_)" id="svg_5">
      <path d="m89.61,34.7l1.39,-0.67l0.14,0l0,4.75c0,0.31 0.01,0.51 0.04,0.59c0.03,0.08 0.08,0.14 0.17,0.18s0.25,0.06 0.51,0.07l0,0.15l-2.14,0l0,-0.15c0.26,-0.01 0.44,-0.03 0.52,-0.07c0.07,-0.04 0.13,-0.09 0.16,-0.16c0.03,-0.07 0.05,-0.27 0.05,-0.61l0,-3.03c0,-0.41 -0.02,-0.68 -0.05,-0.79c-0.02,-0.09 -0.05,-0.15 -0.1,-0.2c-0.05,-0.04 -0.12,-0.06 -0.19,-0.06c-0.1,0 -0.25,0.04 -0.43,0.13l-0.07,-0.13z" fill="#0D0F0F" id="svg_6"/>
     </g>
    </g>
   </g>
   <g id="svg_7">
    <g id="svg_8">
     <defs>
      <rect height="20.61" id="SVGID_3_" width="16.98" x="78.39" y="21.94"/>
     </defs>
     <clipPath id="SVGID_4_">
      <use id="svg_9" overflow="visible" xlink:href="#SVGID_3_"/>
     </clipPath>
     <g clip-path="url(#SVGID_4_)" id="svg_10">
      <path d="m89.31,26.51l-0.72,7.8c-0.04,0.37 -0.06,0.61 -0.06,0.72c0,0.19 0.04,0.33 0.11,0.42c0.09,0.14 0.21,0.24 0.36,0.3c0.15,0.07 0.41,0.1 0.77,0.1l-0.08,0.26l-3.75,0l0.08,-0.26l0.16,0c0.31,0 0.55,-0.06 0.75,-0.19c0.13,-0.09 0.24,-0.24 0.31,-0.44c0.05,-0.14 0.1,-0.48 0.15,-1.01l0.11,-1.19l-2.72,0l-0.97,1.3c-0.22,0.29 -0.36,0.49 -0.41,0.62s-0.09,0.25 -0.09,0.36c0,0.14 0.06,0.27 0.18,0.38s0.33,0.16 0.61,0.17l-0.08,0.26l-2.81,0l0.07,-0.26c0.35,-0.01 0.65,-0.13 0.92,-0.34c0.26,-0.22 0.66,-0.67 1.18,-1.37l5.68,-7.63l0.25,0l0,0zm-1.39,2.31l-2.75,3.7l2.39,0l0.36,-3.7z" fill="#0D0F0F" id="svg_11"/>
     </g>
    </g>
   </g>
  </g>
  <g id="svg_12">
   <g id="svg_13">
    <g id="svg_14">
     <defs>
      <rect height="15.47" id="SVGID_5_" width="13.99" x="83.49" y="101.98"/>
     </defs>
     <clipPath id="SVGID_6_">
      <use id="svg_15" overflow="visible" xlink:href="#SVGID_5_"/>
     </clipPath>
     <g clip-path="url(#SVGID_6_)" id="svg_16">
      <path d="m94.11,105.29l-0.7,7.81c-0.04,0.36 -0.06,0.6 -0.06,0.72c0,0.18 0.04,0.32 0.11,0.42c0.08,0.14 0.2,0.23 0.35,0.3c0.15,0.06 0.4,0.1 0.75,0.1l-0.08,0.25l-3.64,0l0.07,-0.25l0.16,0c0.29,0 0.53,-0.07 0.72,-0.2c0.13,-0.09 0.24,-0.23 0.31,-0.44c0.05,-0.14 0.1,-0.47 0.14,-1.01l0.11,-1.19l-2.65,0l-0.94,1.3c-0.21,0.29 -0.35,0.5 -0.4,0.62c-0.06,0.13 -0.08,0.25 -0.08,0.36c0,0.15 0.06,0.27 0.18,0.38c0.11,0.11 0.31,0.17 0.58,0.18l-0.07,0.25l-2.74,0l0.07,-0.25c0.34,-0.02 0.64,-0.13 0.9,-0.35c0.25,-0.21 0.64,-0.67 1.15,-1.37l5.53,-7.63l0.23,0l0,0l0,0zm-1.35,2.3l-2.68,3.71l2.32,0l0.36,-3.71z" fill="#0D0F0F" id="svg_17"/>
     </g>
    </g>
   </g>
  </g>
  <g id="svg_18">
   <g id="svg_19">
    <g id="svg_20">
     <defs>
      <rect height="20.61" id="SVGID_7_" width="16.98" y="21.94"/>
     </defs>
     <clipPath id="SVGID_8_">
      <use id="svg_21" overflow="visible" xlink:href="#SVGID_7_"/>
     </clipPath>
     <g clip-path="url(#SVGID_8_)" id="svg_22">
      <path d="m11.22,34.71l1.39,-0.66l0.14,0l0,4.74c0,0.32 0.01,0.51 0.04,0.59c0.03,0.08 0.08,0.14 0.17,0.18c0.08,0.04 0.25,0.07 0.51,0.07l0,0.15l-2.15,0l0,-0.15c0.27,0 0.45,-0.03 0.53,-0.07c0.07,-0.04 0.13,-0.09 0.16,-0.16c0.03,-0.07 0.05,-0.27 0.05,-0.6l0,-3.04c0,-0.41 -0.02,-0.67 -0.05,-0.79c-0.02,-0.09 -0.05,-0.15 -0.1,-0.19c-0.05,-0.04 -0.12,-0.06 -0.19,-0.06c-0.1,0 -0.25,0.04 -0.43,0.12l-0.07,-0.13z" fill="#0D0F0F" id="svg_23"/>
     </g>
    </g>
   </g>
   <g id="svg_24">
    <g id="svg_25">
     <defs>
      <rect height="20.61" id="SVGID_9_" width="16.98" y="21.94"/>
     </defs>
     <clipPath id="SVGID_10_">
      <use id="svg_26" overflow="visible" xlink:href="#SVGID_9_"/>
     </clipPath>
     <g clip-path="url(#SVGID_10_)" id="svg_27">
      <path d="m4.95,27l0.09,-0.26l3.4,0c0.57,0 1.08,0.09 1.52,0.26c0.45,0.18 0.79,0.42 1.01,0.74c0.22,0.31 0.33,0.64 0.33,0.99c0,0.54 -0.2,1.03 -0.59,1.46c-0.4,0.44 -1.04,0.76 -1.93,0.97c0.57,0.21 0.99,0.49 1.26,0.84s0.41,0.74 0.41,1.16c0,0.46 -0.12,0.91 -0.36,1.33c-0.25,0.43 -0.56,0.76 -0.94,0.99c-0.38,0.24 -0.84,0.41 -1.38,0.52c-0.38,0.08 -0.98,0.12 -1.79,0.12l-3.49,0l0.09,-0.26c0.37,-0.01 0.61,-0.04 0.74,-0.1c0.19,-0.08 0.32,-0.19 0.4,-0.31c0.12,-0.18 0.27,-0.58 0.45,-1.21l1.71,-5.68c0.14,-0.48 0.21,-0.81 0.21,-1.01c0,-0.17 -0.06,-0.3 -0.19,-0.4c-0.13,-0.1 -0.37,-0.15 -0.73,-0.15c-0.08,0 -0.16,0 -0.22,0zm0.04,8.51c0.5,0.06 0.9,0.1 1.18,0.1c0.73,0 1.38,-0.22 1.94,-0.65c0.57,-0.44 0.85,-1.02 0.85,-1.77c0,-0.56 -0.18,-1.01 -0.52,-1.33c-0.35,-0.31 -0.91,-0.47 -1.69,-0.47c-0.15,0 -0.33,0 -0.55,0.02l-1.21,4.1zm1.38,-4.62c0.3,0.01 0.52,0.01 0.66,0.01c0.97,0 1.7,-0.2 2.17,-0.62c0.47,-0.42 0.71,-0.94 0.71,-1.57c0,-0.47 -0.14,-0.84 -0.43,-1.11c-0.29,-0.26 -0.76,-0.4 -1.39,-0.4c-0.17,0 -0.39,0.03 -0.65,0.09l-1.07,3.6z" fill="#0D0F0F" id="svg_28"/>
     </g>
    </g>
   </g>
  </g>
  <g id="svg_29">
   <g id="svg_30">
    <g id="svg_31">
     <defs>
      <rect height="15.47" id="SVGID_11_" width="13.99" x="1.5" y="101.98"/>
     </defs>
     <clipPath id="SVGID_12_">
      <use id="svg_32" overflow="visible" xlink:href="#SVGID_11_"/>
     </clipPath>
     <g clip-path="url(#SVGID_12_)" id="svg_33">
      <path d="m6.31,105.76l0.1,-0.26l3.31,0c0.55,0 1.05,0.09 1.48,0.26s0.76,0.42 0.98,0.74c0.22,0.31 0.32,0.64 0.32,0.99c0,0.54 -0.19,1.03 -0.57,1.47c-0.39,0.44 -1.01,0.76 -1.88,0.96c0.56,0.22 0.97,0.5 1.23,0.85c0.27,0.35 0.4,0.74 0.4,1.16c0,0.46 -0.12,0.91 -0.36,1.33c-0.23,0.43 -0.54,0.76 -0.91,0.99s-0.82,0.41 -1.34,0.52c-0.38,0.08 -0.96,0.12 -1.75,0.12l-3.4,0l0.09,-0.26c0.36,-0.01 0.6,-0.04 0.73,-0.1c0.18,-0.08 0.31,-0.18 0.38,-0.31c0.11,-0.18 0.26,-0.58 0.44,-1.21l1.66,-5.68c0.14,-0.48 0.21,-0.82 0.21,-1.01c0,-0.17 -0.06,-0.31 -0.18,-0.41c-0.13,-0.1 -0.37,-0.15 -0.72,-0.15c-0.07,0 -0.15,0 -0.22,0zm0.05,8.52c0.49,0.06 0.87,0.1 1.15,0.1c0.71,0 1.34,-0.22 1.89,-0.65c0.55,-0.44 0.82,-1.02 0.82,-1.77c0,-0.57 -0.17,-1.01 -0.51,-1.33s-0.89,-0.48 -1.64,-0.48c-0.15,0 -0.32,0.01 -0.53,0.02l-1.18,4.11zm1.34,-4.62c0.3,0.01 0.51,0.01 0.64,0.01c0.95,0 1.66,-0.21 2.12,-0.63s0.69,-0.94 0.69,-1.56c0,-0.48 -0.14,-0.85 -0.42,-1.11c-0.29,-0.27 -0.74,-0.4 -1.36,-0.4c-0.16,0 -0.37,0.02 -0.62,0.08l-1.05,3.61z" fill="#0D0F0F" id="svg_34"/>
     </g>
    </g>
   </g>
  </g>
  <g id="svg_35">
   <g id="svg_36">
    <g id="svg_37">
     <defs>
      <rect height="20.61" id="SVGID_13_" width="16.98" x="65.89"/>
     </defs>
     <clipPath id="SVGID_14_">
      <use id="svg_38" overflow="visible" xlink:href="#SVGID_13_"/>
     </clipPath>
     <g clip-path="url(#SVGID_14_)" id="svg_39">
      <path d="m77.6,12.77l1.38,-0.66l0.14,0l0,4.74c0,0.32 0.02,0.52 0.04,0.59c0.03,0.08 0.09,0.14 0.17,0.18c0.09,0.04 0.26,0.07 0.51,0.07l0,0.15l-2.14,0l0,-0.15c0.27,0 0.44,-0.03 0.52,-0.07s0.13,-0.09 0.16,-0.16c0.04,-0.07 0.05,-0.27 0.05,-0.6l0,-3.04c0,-0.41 -0.01,-0.67 -0.04,-0.79c-0.02,-0.09 -0.06,-0.15 -0.11,-0.19c-0.05,-0.04 -0.11,-0.06 -0.19,-0.06c-0.1,0 -0.24,0.04 -0.43,0.12l-0.06,-0.13z" fill="#0D0F0F" id="svg_40"/>
     </g>
    </g>
   </g>
   <g id="svg_41">
    <g id="svg_42">
     <defs>
      <rect height="20.61" id="SVGID_15_" width="16.98" x="65.89"/>
     </defs>
     <clipPath id="SVGID_16_">
      <use id="svg_43" overflow="visible" xlink:href="#SVGID_15_"/>
     </clipPath>
     <g clip-path="url(#SVGID_16_)" id="svg_44">
      <path d="m77.96,4.56l-0.71,3.04l-0.25,0l-0.03,-0.76c-0.02,-0.28 -0.07,-0.52 -0.16,-0.74c-0.08,-0.22 -0.21,-0.41 -0.38,-0.57c-0.17,-0.15 -0.38,-0.28 -0.64,-0.37c-0.25,-0.09 -0.54,-0.13 -0.85,-0.13c-0.84,0 -1.57,0.22 -2.2,0.67c-0.8,0.58 -1.43,1.4 -1.88,2.45c-0.37,0.86 -0.56,1.74 -0.56,2.63c0,0.91 0.27,1.64 0.81,2.18c0.54,0.54 1.23,0.81 2.1,0.81c0.65,0 1.23,-0.14 1.73,-0.43c0.51,-0.28 0.98,-0.73 1.42,-1.32l0.33,0c-0.52,0.81 -1.09,1.4 -1.72,1.78c-0.62,0.38 -1.37,0.57 -2.25,0.57c-0.77,0 -1.46,-0.16 -2.06,-0.48c-0.6,-0.32 -1.06,-0.77 -1.37,-1.35c-0.31,-0.58 -0.47,-1.21 -0.47,-1.88c0,-1.02 0.28,-2.02 0.84,-2.98c0.55,-0.97 1.32,-1.73 2.29,-2.29c0.97,-0.55 1.95,-0.83 2.93,-0.83c0.47,0 0.99,0.11 1.56,0.33c0.25,0.09 0.44,0.14 0.55,0.14c0.11,0 0.21,-0.03 0.29,-0.07s0.23,-0.18 0.42,-0.4l0.26,0z" fill="#0D0F0F" id="svg_45"/>
     </g>
    </g>
   </g>
  </g>
  <g id="svg_46">
   <g id="svg_47">
    <g id="svg_48">
     <defs>
      <rect height="16.77" id="SVGID_17_" width="15.22" x="74.38" y="62.8"/>
     </defs>
     <clipPath id="SVGID_18_">
      <use id="svg_49" overflow="visible" xlink:href="#SVGID_17_"/>
     </clipPath>
     <g clip-path="url(#SVGID_18_)" id="svg_50">
      <path d="m86.09,66.09l-0.68,3.04l-0.25,0l-0.03,-0.76c-0.02,-0.28 -0.07,-0.53 -0.15,-0.74c-0.09,-0.22 -0.21,-0.41 -0.37,-0.57c-0.17,-0.16 -0.37,-0.28 -0.62,-0.37c-0.25,-0.09 -0.53,-0.14 -0.83,-0.14c-0.82,0 -1.53,0.23 -2.14,0.68c-0.77,0.58 -1.38,1.39 -1.82,2.45c-0.37,0.87 -0.55,1.74 -0.55,2.64c0,0.91 0.26,1.63 0.79,2.18c0.52,0.54 1.2,0.81 2.03,0.81c0.64,0 1.2,-0.14 1.69,-0.43c0.49,-0.29 0.95,-0.73 1.37,-1.32l0.32,0c-0.5,0.81 -1.05,1.4 -1.66,1.78c-0.61,0.38 -1.34,0.57 -2.19,0.57c-0.75,0 -1.42,-0.16 -2,-0.48s-1.02,-0.77 -1.33,-1.35c-0.3,-0.58 -0.46,-1.21 -0.46,-1.88c0,-1.02 0.27,-2.02 0.82,-2.99c0.54,-0.97 1.28,-1.73 2.22,-2.29c0.94,-0.55 1.89,-0.83 2.85,-0.83c0.45,0 0.96,0.11 1.52,0.33c0.24,0.09 0.42,0.13 0.53,0.13s0.2,-0.02 0.28,-0.06c0.08,-0.05 0.22,-0.18 0.41,-0.4l0.25,0l0,0l0,0z" fill="#0D0F0F" id="svg_51"/>
     </g>
    </g>
   </g>
  </g>
  <g id="svg_52">
   <g id="svg_53">
    <g id="svg_54">
     <defs>
      <rect height="15.47" id="SVGID_19_" width="15.22" x="151.54" y="63.45"/>
     </defs>
     <clipPath id="SVGID_20_">
      <use id="svg_55" overflow="visible" xlink:href="#SVGID_19_"/>
     </clipPath>
     <g clip-path="url(#SVGID_20_)" id="svg_56">
      <path d="m156.33,67.21l0.08,-0.26l2.95,0c1.25,0 2.17,0.15 2.77,0.44s1.09,0.75 1.44,1.37c0.36,0.63 0.54,1.3 0.54,2.02c0,0.61 -0.1,1.21 -0.31,1.78c-0.21,0.58 -0.44,1.05 -0.7,1.4c-0.26,0.35 -0.66,0.73 -1.2,1.15s-1.13,0.73 -1.76,0.93c-0.63,0.2 -1.42,0.3 -2.37,0.3l-3.91,0l0.09,-0.25c0.36,-0.01 0.6,-0.04 0.72,-0.1c0.19,-0.08 0.32,-0.19 0.41,-0.32c0.13,-0.19 0.27,-0.58 0.44,-1.17l1.63,-5.68c0.13,-0.44 0.19,-0.8 0.19,-1.05c0,-0.18 -0.06,-0.32 -0.17,-0.41c-0.12,-0.1 -0.35,-0.15 -0.7,-0.15l-0.14,0zm2.41,0.26l-2,7.03c-0.15,0.53 -0.22,0.85 -0.22,0.98c0,0.07 0.02,0.14 0.07,0.21c0.04,0.07 0.11,0.12 0.19,0.14c0.12,0.04 0.31,0.06 0.57,0.06c0.71,0 1.38,-0.07 1.99,-0.22s1.11,-0.37 1.5,-0.67c0.56,-0.43 1,-1.02 1.33,-1.77c0.33,-0.75 0.5,-1.61 0.5,-2.57c0,-1.08 -0.26,-1.89 -0.77,-2.42c-0.51,-0.53 -1.25,-0.79 -2.23,-0.79c-0.23,0 -0.54,0 -0.93,0.02z" fill="#0D0F0F" id="svg_57"/>
     </g>
    </g>
   </g>
  </g>
  <g id="svg_58">
   <g id="svg_59">
    <g id="svg_60">
     <defs>
      <rect height="20.61" id="SVGID_21_" width="18.22" x="151.52"/>
     </defs>
     <clipPath id="SVGID_22_">
      <use id="svg_61" overflow="visible" xlink:href="#SVGID_21_"/>
     </clipPath>
     <g clip-path="url(#SVGID_22_)" id="svg_62">
      <path d="m164.24,12.75l1.39,-0.66l0.13,0l0,4.74c0,0.32 0.02,0.51 0.04,0.59c0.03,0.08 0.08,0.14 0.17,0.18s0.25,0.07 0.51,0.07l0,0.15l-2.14,0l0,-0.15c0.27,0 0.44,-0.03 0.52,-0.07s0.14,-0.09 0.17,-0.16c0.03,-0.07 0.04,-0.27 0.04,-0.61l0,-3.03c0,-0.41 -0.01,-0.67 -0.04,-0.79c-0.02,-0.09 -0.05,-0.15 -0.11,-0.19c-0.05,-0.04 -0.11,-0.06 -0.18,-0.06c-0.11,0 -0.25,0.04 -0.43,0.12l-0.07,-0.13z" fill="#0D0F0F" id="svg_63"/>
     </g>
    </g>
   </g>
   <g id="svg_64">
    <g id="svg_65">
     <defs>
      <rect height="20.61" id="SVGID_23_" width="18.22" x="151.52"/>
     </defs>
     <clipPath id="SVGID_24_">
      <use id="svg_66" overflow="visible" xlink:href="#SVGID_23_"/>
     </clipPath>
     <g clip-path="url(#SVGID_24_)" id="svg_67">
      <path d="m156.42,5.03l0.08,-0.25l3.03,0c1.28,0 2.22,0.14 2.84,0.43c0.62,0.29 1.11,0.75 1.48,1.38s0.55,1.29 0.55,2.01c0,0.61 -0.1,1.21 -0.31,1.78c-0.21,0.58 -0.45,1.05 -0.72,1.4c-0.27,0.34 -0.68,0.73 -1.24,1.15c-0.55,0.42 -1.15,0.72 -1.8,0.93c-0.65,0.2 -1.45,0.3 -2.43,0.3l-4.01,0l0.09,-0.26c0.37,-0.01 0.62,-0.04 0.74,-0.1c0.19,-0.07 0.33,-0.18 0.42,-0.31c0.13,-0.2 0.28,-0.59 0.45,-1.17l1.68,-5.67c0.13,-0.45 0.19,-0.8 0.19,-1.06c0,-0.18 -0.06,-0.31 -0.18,-0.41c-0.12,-0.1 -0.36,-0.15 -0.71,-0.15l-0.15,0zm2.48,0.27l-2.06,7.02c-0.15,0.52 -0.23,0.85 -0.23,0.97c0,0.08 0.02,0.15 0.07,0.22c0.05,0.07 0.12,0.11 0.2,0.14c0.12,0.04 0.32,0.06 0.59,0.06c0.73,0 1.41,-0.07 2.04,-0.22c0.62,-0.15 1.14,-0.38 1.54,-0.67c0.57,-0.43 1.02,-1.02 1.36,-1.77c0.34,-0.76 0.51,-1.61 0.51,-2.57c0,-1.08 -0.26,-1.89 -0.78,-2.42c-0.52,-0.52 -1.28,-0.79 -2.29,-0.79c-0.24,0 -0.56,0.01 -0.95,0.03z" fill="#0D0F0F" id="svg_68"/>
     </g>
    </g>
   </g>
  </g>
  <line fill="none" id="svg_69" stroke="#0D0F0F" stroke-dasharray="7.5,3" stroke-linecap="round" stroke-linejoin="round" stroke-miterlimit="8" stroke-width="0.75" x1="15.46" x2="74.38" y1="102.65" y2="79.57"/>
  <line fill="none" id="svg_70" stroke="#0D0F0F" stroke-linecap="round" stroke-linejoin="round" stroke-miterlimit="8" stroke-width="0.75" x1="92.6" x2="151.52" y1="102.65" y2="79.57"/>
  <line fill="none" id="svg_71" stroke="#0D0F0F" stroke-dasharray="7.5,3" stroke-linecap="round" stroke-linejoin="round" stroke-miterlimit="8" stroke-width="0.75" x1="74.38" x2="151.52" y1="79.57" y2="79.57"/>
  <line fill="none" id="svg_72" stroke="#0D0F0F" stroke-linecap="round" stroke-linejoin="round" stroke-miterlimit="8" stroke-width="0.75" x1="15.46" x2="74.38" y1="41.98" y2="18.9"/>
  <line fill="none" id="svg_73" stroke="#0D0F0F" stroke-linecap="round" stroke-linejoin="round" stroke-miterlimit="8" stroke-width="0.75" x1="15.46" x2="92.6" y1="41.98" y2="41.98"/>
  <line fill="none" id="svg_74" stroke="#0D0F0F" stroke-dasharray="7.5,3" stroke-linecap="round" stroke-linejoin="round" stroke-miterlimit="8" stroke-width="0.75" x1="74.38" x2="74.38" y1="79.57" y2="18.9"/>
  <line fill="none" id="svg_75" stroke="#0D0F0F" stroke-linecap="round" stroke-linejoin="round" stroke-miterlimit="8" stroke-width="0.75" x1="93.29" x2="93.29" y1="102.99" y2="42.32"/>
  <line fill="none" id="svg_76" stroke="#0D0F0F" stroke-linecap="round" stroke-linejoin="round" stroke-miterlimit="8" stroke-width="0.75" x1="92.6" x2="151.52" y1="41.98" y2="18.9"/>
  <line fill="none" id="svg_77" stroke="#0D0F0F" stroke-linecap="round" stroke-linejoin="round" stroke-miterlimit="8" stroke-width="0.75" x1="74.38" x2="151.52" y1="18.9" y2="18.9"/>
  <line fill="none" id="svg_78" stroke="#0D0F0F" stroke-linecap="round" stroke-linejoin="round" stroke-miterlimit="8" stroke-width="0.75" x1="151.52" x2="151.52" y1="79.57" y2="18.9"/>
  <line fill="none" id="svg_79" stroke="#0D0F0F" stroke-linecap="round" stroke-linejoin="round" stroke-miterlimit="8" stroke-width="0.75" x1="15.46" x2="92.6" y1="102.65" y2="102.65"/>
  <line fill="none" id="svg_80" stroke="#0D0F0F" stroke-linecap="round" stroke-linejoin="round" stroke-miterlimit="8" stroke-width="0.75" x1="15.46" x2="15.46" y1="102.65" y2="41.98"/>
  <line fill="none" id="svg_92" stroke="#5f00bf" stroke-dasharray="5,5" stroke-linecap="round" stroke-linejoin="round" x1="16.07" x2="150.56" y1="102.55" y2="19.1"/>
  <line fill="none" id="svg_93" stroke="#5f00bf" stroke-linecap="round" stroke-linejoin="round" x1="93.32" x2="151.25" y1="102.21" y2="18.76"/>
  <text fill="#000000" font-family="Sans-serif" font-size="10" font-weight="normal" id="svg_95" stroke="#5f00bf" stroke-linecap="round" stroke-linejoin="round" stroke-width="0" text-anchor="middle" x="49.52" xml:space="preserve" y="110.48"/>
  <text fill="#000000" font-family="Sans-serif" font-size="10" id="svg_96" stroke="#5f00bf" stroke-linecap="round" stroke-linejoin="round" stroke-width="0" text-anchor="middle" x="50.21" xml:space="preserve" y="112.55">5</text>
  <text fill="#000000" font-family="Sans-serif" font-size="10" id="svg_97" stroke="#5f00bf" stroke-linecap="round" stroke-linejoin="round" stroke-width="0" text-anchor="middle" x="97.8" xml:space="preserve" y="75.31">3</text>
  <text fill="#000000" font-family="Sans-serif" font-size="10" id="svg_98" stroke="#5f00bf" stroke-linecap="round" stroke-linejoin="round" stroke-width="0" text-anchor="middle" x="128.83" xml:space="preserve" y="98.76">4</text>
 </g>
</svg>