<?xml version="1.0"?>
<svg width="155.02400000000006" height="95.80300000000005" xmlns="http://www.w3.org/2000/svg" xmlns:svg="http://www.w3.org/2000/svg" enable-background="new 10.825 4.045 139.024 130.803" version="1.1" xml:space="preserve">
 <g class="layer">
  <title>Layer 1</title>
  <path d="m74.8,92.22l-14.57,-34.86l28.46,-21.83l14.57,34.26l-28.46,22.44l0,-0.01z" fill="#aaffff" fill-opacity="0.8" id="svg_13" stroke="#00bfbf" stroke-linecap="round" stroke-linejoin="round" transform="matrix(1 0 0 1 0 0)"/>
  <path d="m132.67,86.38" fill="none" id="svg_29" stroke="#0A990A" stroke-linecap="round" stroke-linejoin="round" stroke-miterlimit="8" stroke-width="1.25"/>
  <path d="m127.48,81.3" fill="none" id="svg_30" stroke="#0A990A" stroke-linecap="round" stroke-linejoin="round" stroke-miterlimit="8" stroke-width="1.25"/>
  <path d="m129.19,83.3" fill="none" id="svg_31" stroke="#0A990A" stroke-linecap="round" stroke-linejoin="round" stroke-miterlimit="8" stroke-width="1.25"/>
  <path d="m1.26,58.41l38.02,-22.06l114.08,0l-38.02,22.06l-114.08,0z" fill="#aaaaff" fill-opacity="0.65" id="svg_1" stroke="#5f00bf" stroke-linecap="round" stroke-linejoin="round">ba</path>
  <line fill="none" id="svg_4" opacity="10" stroke="#00bfbf" stroke-linecap="round" stroke-linejoin="round" x1="-43.55" x2="-43.55" y1="51.69" y2="51.3"/>
  <rect fill="#aaffff" height="0" id="svg_16" opacity="5" stroke="#00bfbf" stroke-linecap="round" stroke-linejoin="round" width="0" x="20.28" y="51.32"/>
  <rect fill="#aaffff" height="0" id="svg_22" opacity="5" stroke="#00bfbf" stroke-linecap="round" stroke-linejoin="round" width="0" x="6.5" y="58.89"/>
  <rect fill="#aaffff" height="0" id="svg_23" opacity="5" stroke="#00bfbf" stroke-linecap="round" stroke-linejoin="round" width="0" x="5.15" y="62.4"/>
  <rect fill="#aaffff" height="0" id="svg_24" opacity="5" stroke="#00bfbf" stroke-linecap="round" stroke-linejoin="round" width="0" x="2.17" y="72.67"/>
  <rect fill="#aaffff" height="0" id="svg_25" opacity="5" stroke="#00bfbf" stroke-linecap="round" stroke-linejoin="round" width="0" x="21.8" y="-0.3"/>
  <rect fill="#aaffff" height="0" id="svg_26" opacity="5" stroke="#00bfbf" stroke-linecap="round" stroke-linejoin="round" width="0" x="23.28" y="-10.3"/>
  <rect fill="#aaffff" height="0" id="svg_27" opacity="5" stroke="#00bfbf" stroke-linecap="round" stroke-linejoin="round" width="0" x="67.17" y="-29.59"/>
  <path d="m60.61,58.49l-14.57,-34.86l28.46,-21.83l14.57,34.26l-28.46,22.44l0,-0.01z" fill="#aaffff" fill-opacity="0.8" id="svg_6" stroke="#00bfbf" stroke-linecap="round" stroke-linejoin="round" transform="matrix(1 0 0 1 0 0)"/>
  <text fill="#3f007f" font-family="Serif" font-size="9" font-style="italic" id="svg_8" opacity="0.9" stroke="#00bfbf" stroke-linecap="round" stroke-linejoin="round" stroke-width="0" text-anchor="middle" x="16.52" xml:space="preserve" y="56.55">α</text>
  <text fill="#00bfbf" font-family="Serif" font-size="8" font-style="italic" id="svg_14" opacity="0.9" stroke="#bf00bf" stroke-linecap="round" stroke-linejoin="round" stroke-width="0" text-anchor="middle" x="71.07" xml:space="preserve" y="12.14">β</text>
  <text fill="#bf00bf" font-family="Serif" font-size="6" font-style="normal" font-weight="normal" id="svg_15" opacity="0.9" stroke="#00bfbf" stroke-linecap="round" stroke-linejoin="round" stroke-width="0" text-anchor="middle" transform="matrix(1 0 0 1 0 0) matrix(0.941787 -0.33621 0.33621 0.941787 -24.839 42.4182)" x="94.77" xml:space="preserve" y="16.71">a</text>
  <line fill="none" id="svg_11" points="null" stroke="#bf00bf" stroke-dasharray="2,2" stroke-linecap="round" stroke-linejoin="round" x1="70.49" x2="72.8" y1="52.81" y2="58.23"/>
  <line fill="none" id="svg_12" stroke="#bf00bf" stroke-linecap="round" stroke-linejoin="round" x1="61.59" x2="69.93" y1="31.41" y2="51.5"/>
  <line fill="none" id="svg_18" stroke="#bf00bf" stroke-linecap="round" stroke-linejoin="round" x1="72.76" x2="78.09" y1="58.16" y2="71.25"/>
  <line fill="none" id="svg_19" stroke="#bf00bf" stroke-linecap="round" stroke-linejoin="round" transform="matrix(1 0 0 1 0 0)" x1="71.71" x2="80.05" y1="22.49" y2="42.57"/>
  <line fill="none" id="svg_20" points="null" stroke="#bf00bf" stroke-dasharray="2,2" stroke-linecap="round" stroke-linejoin="round" transform="matrix(1 0 0 1 0 0)" x1="79.89" x2="86.97" y1="42.21" y2="59.06"/>
  <line fill="none" id="svg_21" stroke="#bf00bf" stroke-linecap="round" stroke-linejoin="round" x1="86.66" x2="89.7" y1="58.22" y2="65"/>
  <text fill="#bf00bf" font-family="Serif" font-size="6" font-style="normal" font-weight="normal" id="svg_28" opacity="0.9" stroke="#00bfbf" stroke-linecap="round" stroke-linejoin="round" stroke-width="0" text-anchor="middle" transform="matrix(0.941787 -0.33621 0.33621 0.941787 -23.9694 43.8164)" x="81.21" xml:space="preserve" y="20.14">b</text>
  <ellipse cx="80.22" cy="43.04" fill="#3f007f" id="svg_32" rx="0.59" ry="0.59" stroke="#000000" stroke-linecap="round" stroke-linejoin="round" stroke-opacity="0"/>
  <ellipse cx="69.85" cy="51.36" fill="#3f007f" id="svg_33" rx="0.59" ry="0.59" stroke="#000000" stroke-linecap="round" stroke-linejoin="round" stroke-opacity="0"/>
  <text fill="#3f007f" font-family="Serif" font-size="6" font-style="italic" id="svg_34" opacity="0.9" stroke="#00bfbf" stroke-linecap="round" stroke-linejoin="round" stroke-width="0" text-anchor="middle" x="83.44" xml:space="preserve" y="41.22">M</text>
  <text fill="#3f007f" font-family="Serif" font-size="6" font-style="italic" id="svg_35" opacity="0.9" stroke="#00bfbf" stroke-linecap="round" stroke-linejoin="round" stroke-width="0" style="cursor: move;" text-anchor="middle" x="72.97" xml:space="preserve" y="49.73">N</text>
 </g>
</svg>