<?xml version="1.0"?>
<svg width="160.024" height="140.803" xmlns="http://www.w3.org/2000/svg" xmlns:svg="http://www.w3.org/2000/svg" enable-background="new 10.825 4.045 139.024 130.803" version="1.1" xml:space="preserve">
 <g class="layer">
  <title>Layer 1</title>
  <line fill="none" id="svg_1" stroke="#00bfbf" stroke-dasharray="7.5,3" stroke-linecap="round" stroke-linejoin="round" stroke-miterlimit="8" stroke-width="0.75" x1="80.91" x2="80.91" y1="26.65" y2="103.25"/>
  <line fill="none" id="svg_2" stroke="#0D0F0F" stroke-dasharray="7.5,3" stroke-linecap="round" stroke-linejoin="round" stroke-miterlimit="8" stroke-width="0.75" x1="80.91" x2="70.67" y1="26.98" y2="90.84"/>
  <line fill="none" id="svg_3" stroke="#0D0F0F" stroke-dasharray="7.5,3" stroke-linecap="round" stroke-linejoin="round" stroke-miterlimit="8" stroke-width="0.75" x1="29.88" x2="70.67" y1="116.37" y2="90.84"/>
  <line fill="none" id="svg_4" stroke="#0D0F0F" stroke-linecap="round" stroke-linejoin="round" stroke-miterlimit="8" stroke-width="0.75" x1="29.88" x2="91.11" y1="116.37" y2="116.37"/>
  <line fill="none" id="svg_5" stroke="#0D0F0F" stroke-linecap="round" stroke-linejoin="round" stroke-miterlimit="8" stroke-width="0.75" x1="91.11" x2="131.9" y1="116.37" y2="90.84"/>
  <line fill="none" id="svg_6" stroke="#0D0F0F" stroke-dasharray="7.5,3" stroke-linecap="round" stroke-linejoin="round" stroke-miterlimit="8" stroke-width="0.75" x1="70.67" x2="131.9" y1="90.84" y2="90.84"/>
  <line fill="none" id="svg_7" stroke="#7f00ff" stroke-dasharray="7.5,3" stroke-linecap="round" stroke-linejoin="round" stroke-miterlimit="8" stroke-width="0.75" x1="131.9" x2="29.88" y1="90.84" y2="116.37"/>
  <g id="svg_8">
   <g id="svg_9">
    <path d="m96.19,119.35l-0.78,8.48c-0.04,0.39 -0.06,0.65 -0.06,0.78c0,0.19 0.04,0.35 0.11,0.45c0.1,0.15 0.23,0.26 0.39,0.33c0.16,0.07 0.44,0.1 0.82,0.1l-0.08,0.28l-4.02,0l0.08,-0.28l0.18,0c0.32,0 0.59,-0.07 0.8,-0.21c0.14,-0.1 0.25,-0.25 0.33,-0.47c0.06,-0.16 0.11,-0.53 0.16,-1.1l0.12,-1.29l-2.92,0l-1.04,1.4c-0.23,0.31 -0.38,0.54 -0.44,0.68c-0.06,0.14 -0.09,0.27 -0.09,0.39c0,0.16 0.06,0.3 0.19,0.41s0.35,0.18 0.65,0.19l-0.08,0.28l-3.02,0l0.08,-0.28c0.37,-0.02 0.7,-0.14 0.98,-0.37c0.29,-0.23 0.71,-0.73 1.27,-1.49l6.1,-8.28l0.27,0l0,0zm-1.49,2.5l-2.96,4.02l2.56,0l0.4,-4.02z" id="svg_10"/>
   </g>
  </g>
  <g id="svg_11">
   <g id="svg_12">
    <path d="m137.84,87.13l0.11,-0.28l3.64,0c0.61,0 1.16,0.1 1.64,0.28c0.48,0.19 0.84,0.46 1.08,0.8c0.24,0.34 0.36,0.7 0.36,1.08c0,0.59 -0.22,1.12 -0.64,1.59c-0.43,0.47 -1.12,0.82 -2.08,1.05c0.62,0.23 1.08,0.53 1.37,0.91s0.43,0.8 0.43,1.26c0,0.5 -0.13,0.99 -0.39,1.45c-0.26,0.46 -0.59,0.81 -1,1.07c-0.41,0.25 -0.9,0.44 -1.48,0.56c-0.41,0.09 -1.05,0.13 -1.93,0.13l-3.74,0l0.1,-0.28c0.39,-0.01 0.65,-0.04 0.8,-0.11c0.2,-0.08 0.34,-0.19 0.43,-0.34c0.12,-0.19 0.28,-0.62 0.48,-1.3l1.83,-6.17c0.15,-0.52 0.23,-0.89 0.23,-1.1c0,-0.18 -0.07,-0.33 -0.21,-0.43c-0.14,-0.11 -0.4,-0.17 -0.78,-0.17c-0.09,0 -0.17,0 -0.25,0zm0.05,9.24c0.54,0.07 0.97,0.1 1.27,0.1c0.78,0 1.48,-0.23 2.08,-0.7c0.61,-0.47 0.91,-1.11 0.91,-1.91c0,-0.62 -0.19,-1.1 -0.56,-1.45c-0.38,-0.34 -0.98,-0.51 -1.81,-0.51c-0.16,0 -0.36,0 -0.59,0.02l-1.3,4.45zm1.48,-5.02c0.33,0.01 0.57,0.02 0.71,0.02c1.04,0 1.82,-0.23 2.33,-0.68s0.77,-1.02 0.77,-1.7c0,-0.52 -0.16,-0.92 -0.47,-1.21c-0.31,-0.28 -0.81,-0.43 -1.49,-0.43c-0.18,0 -0.41,0.03 -0.69,0.09l-1.16,3.91z" id="svg_13"/>
   </g>
  </g>
  <g id="svg_14">
   <g id="svg_15">
    <path d="m67.64,80.75l-0.76,3.29l-0.27,0l-0.03,-0.82c-0.03,-0.3 -0.08,-0.57 -0.17,-0.81c-0.09,-0.23 -0.23,-0.44 -0.41,-0.61s-0.41,-0.31 -0.69,-0.4c-0.27,-0.1 -0.58,-0.15 -0.91,-0.15c-0.9,0 -1.69,0.25 -2.36,0.74c-0.86,0.63 -1.53,1.51 -2.02,2.65c-0.4,0.94 -0.6,1.89 -0.6,2.86c0,0.98 0.28,1.77 0.86,2.36c0.58,0.59 1.33,0.88 2.25,0.88c0.7,0 1.32,-0.15 1.86,-0.46s1.06,-0.79 1.52,-1.44l0.36,0c-0.55,0.88 -1.17,1.52 -1.84,1.94c-0.67,0.41 -1.48,0.62 -2.41,0.62c-0.84,0 -1.57,-0.18 -2.22,-0.53c-0.64,-0.35 -1.13,-0.83 -1.47,-1.46s-0.5,-1.32 -0.5,-2.04c0,-1.11 0.3,-2.19 0.89,-3.24c0.6,-1.05 1.42,-1.88 2.47,-2.48c1.03,-0.6 2.09,-0.9 3.14,-0.9c0.5,0 1.06,0.11 1.67,0.35c0.27,0.1 0.47,0.15 0.59,0.15c0.12,0 0.23,-0.02 0.32,-0.07c0.09,-0.06 0.24,-0.19 0.45,-0.43l0.28,0z" id="svg_16"/>
   </g>
  </g>
  <g id="svg_17">
   <g id="svg_18">
    <path d="m76.9,22.14l0.85,-3.78l0.25,0c-0.03,0.37 -0.05,0.67 -0.05,0.91c0,0.69 0.22,1.25 0.66,1.68c0.44,0.43 1.01,0.64 1.72,0.64c0.66,0 1.16,-0.2 1.5,-0.6s0.51,-0.87 0.51,-1.39c0,-0.34 -0.08,-0.66 -0.23,-0.94c-0.24,-0.41 -0.87,-1.14 -1.89,-2.19c-0.5,-0.5 -0.82,-0.87 -0.96,-1.12c-0.23,-0.4 -0.35,-0.83 -0.35,-1.27c0,-0.71 0.27,-1.32 0.8,-1.83c0.53,-0.5 1.22,-0.76 2.05,-0.76c0.28,0 0.55,0.03 0.8,0.09c0.15,0.03 0.44,0.13 0.85,0.3c0.29,0.11 0.45,0.17 0.48,0.18c0.07,0.02 0.15,0.03 0.23,0.03c0.15,0 0.27,-0.04 0.38,-0.12c0.11,-0.07 0.23,-0.23 0.37,-0.48l0.28,0l-0.78,3.38l-0.25,0c0.02,-0.3 0.03,-0.54 0.03,-0.73c0,-0.6 -0.2,-1.1 -0.61,-1.48c-0.4,-0.39 -0.93,-0.58 -1.59,-0.58c-0.52,0 -0.94,0.15 -1.27,0.46c-0.32,0.3 -0.49,0.65 -0.49,1.05c0,0.36 0.11,0.69 0.32,1.01c0.2,0.31 0.68,0.83 1.43,1.55c0.75,0.72 1.24,1.28 1.46,1.68s0.33,0.84 0.33,1.29c0,0.52 -0.13,1.02 -0.41,1.5c-0.27,0.48 -0.66,0.86 -1.18,1.12c-0.51,0.27 -1.07,0.4 -1.67,0.4c-0.31,0 -0.59,-0.03 -0.85,-0.08c-0.26,-0.06 -0.68,-0.19 -1.25,-0.41c-0.19,-0.07 -0.36,-0.11 -0.49,-0.11c-0.29,0 -0.52,0.2 -0.69,0.6l-0.29,0z" id="svg_19"/>
   </g>
  </g>
  <g id="svg_20">
   <g id="svg_21">
    <path d="m18.73,119.75l0.09,-0.28l3.26,0c1.38,0 2.4,0.16 3.06,0.47c0.67,0.32 1.2,0.82 1.6,1.49c0.39,0.68 0.59,1.41 0.59,2.19c0,0.66 -0.11,1.31 -0.34,1.94c-0.23,0.62 -0.49,1.13 -0.77,1.51c-0.29,0.37 -0.74,0.79 -1.33,1.25c-0.6,0.45 -1.25,0.79 -1.95,1.01c-0.69,0.21 -1.56,0.32 -2.61,0.32l-4.32,0l0.1,-0.27c0.4,-0.01 0.66,-0.05 0.8,-0.11c0.2,-0.08 0.35,-0.2 0.44,-0.35c0.15,-0.21 0.31,-0.63 0.49,-1.26l1.81,-6.16c0.14,-0.49 0.21,-0.87 0.21,-1.14c0,-0.2 -0.07,-0.35 -0.2,-0.45c-0.13,-0.11 -0.38,-0.16 -0.77,-0.16l-0.16,0l0,0zm2.67,0.28l-2.21,7.63c-0.17,0.56 -0.25,0.92 -0.25,1.05c0,0.08 0.02,0.16 0.08,0.24c0.05,0.07 0.12,0.12 0.21,0.14c0.13,0.05 0.34,0.07 0.63,0.07c0.79,0 1.52,-0.08 2.2,-0.24c0.67,-0.16 1.23,-0.4 1.66,-0.73c0.61,-0.46 1.1,-1.1 1.47,-1.92c0.36,-0.81 0.55,-1.74 0.55,-2.78c0,-1.18 -0.28,-2.06 -0.85,-2.63c-0.56,-0.57 -1.38,-0.86 -2.46,-0.86c-0.27,0 -0.61,0.01 -1.03,0.03z" id="svg_22"/>
   </g>
  </g>
  <line fill="none" id="svg_23" stroke="#0D0F0F" stroke-linecap="round" stroke-linejoin="round" stroke-miterlimit="8" stroke-width="0.75" x1="80.91" x2="29.88" y1="26.98" y2="116.37"/>
  <line fill="none" id="svg_24" stroke="#0D0F0F" stroke-linecap="round" stroke-linejoin="round" stroke-miterlimit="8" stroke-width="0.75" x1="80.91" x2="131.9" y1="26.98" y2="90.84"/>
  <line fill="none" id="svg_25" stroke="#0D0F0F" stroke-linecap="round" stroke-linejoin="round" stroke-miterlimit="8" stroke-width="0.75" x1="80.91" x2="91.11" y1="26.98" y2="116.37"/>
  <path d="m16.01,9.13" fill="none" id="svg_26" stroke="#0A990A" stroke-linecap="round" stroke-linejoin="round" stroke-miterlimit="8" stroke-width="1.25"/>
  <path d="m10.82,4.04" fill="none" id="svg_27" stroke="#0A990A" stroke-linecap="round" stroke-linejoin="round" stroke-miterlimit="8" stroke-width="1.25"/>
  <path d="m12.53,6.05" fill="none" id="svg_28" stroke="#0A990A" stroke-linecap="round" stroke-linejoin="round" stroke-miterlimit="8" stroke-width="1.25"/>
  <path d="m149.85,134.85" fill="none" id="svg_29" stroke="#0A990A" stroke-linecap="round" stroke-linejoin="round" stroke-miterlimit="8" stroke-width="1.25"/>
  <path d="m144.66,129.77" fill="none" id="svg_30" stroke="#0A990A" stroke-linecap="round" stroke-linejoin="round" stroke-miterlimit="8" stroke-width="1.25"/>
  <path d="m146.37,131.77" fill="none" id="svg_31" stroke="#0A990A" stroke-linecap="round" stroke-linejoin="round" stroke-miterlimit="8" stroke-width="1.25"/>
  <rect fill="#FFFFFF" height="13" id="svg_32" width="12.33" x="67.27" y="98.49"/>
  <g id="svg_33">
   <g id="svg_34">
    <path d="m74.87,100.29c0.68,0 1.27,0.15 1.8,0.44s0.93,0.73 1.22,1.3c0.3,0.57 0.45,1.17 0.45,1.78c0,1.1 -0.32,2.24 -0.95,3.44c-0.64,1.2 -1.47,2.11 -2.49,2.74c-1.03,0.64 -2.08,0.95 -3.18,0.95c-0.79,0 -1.45,-0.17 -1.98,-0.52c-0.52,-0.35 -0.92,-0.81 -1.17,-1.38c-0.25,-0.57 -0.38,-1.12 -0.38,-1.66c0,-0.95 0.23,-1.89 0.69,-2.82c0.46,-0.93 1.01,-1.7 1.64,-2.33c0.64,-0.62 1.32,-1.1 2.04,-1.43c0.73,-0.34 1.5,-0.51 2.31,-0.51zm-0.26,0.48c-0.5,0 -0.99,0.13 -1.47,0.37c-0.48,0.25 -0.95,0.66 -1.43,1.22c-0.47,0.56 -0.89,1.3 -1.27,2.21c-0.46,1.12 -0.69,2.18 -0.69,3.18c0,0.71 0.18,1.34 0.55,1.89c0.37,0.55 0.93,0.82 1.68,0.82c0.46,0 0.91,-0.11 1.35,-0.34c0.44,-0.22 0.9,-0.61 1.37,-1.15c0.6,-0.69 1.1,-1.56 1.51,-2.63c0.4,-1.06 0.61,-2.06 0.61,-2.98c0,-0.68 -0.19,-1.28 -0.55,-1.8c-0.37,-0.53 -0.92,-0.79 -1.66,-0.79z" id="svg_35"/>
   </g>
  </g>
 </g>
</svg>