<?xml version="1.0"?>
<svg width="181.4399" height="223.01190000000003" xmlns="http://www.w3.org/2000/svg" xmlns:svg="http://www.w3.org/2000/svg" xmlns:xlink="http://www.w3.org/1999/xlink" enable-background="new 0 0 181.4399 223.0119" version="1.1" xml:space="preserve">
 <g class="layer">
  <title>Layer 1</title>
  <line fill="none" id="svg_1" stroke="#0D0F0F" stroke-linecap="round" stroke-linejoin="round" stroke-miterlimit="8" stroke-width="0.75" x1="91.7" x2="163.55" y1="62.51" y2="16.43"/>
  <line fill="none" id="svg_2" stroke="#0D0F0F" stroke-linecap="round" stroke-linejoin="round" stroke-miterlimit="8" stroke-width="0.75" x1="137.95" x2="163.55" y1="109.03" y2="16.43"/>
  <line fill="none" id="svg_3" stroke="#0D0F0F" stroke-linecap="round" stroke-linejoin="round" stroke-miterlimit="8" stroke-width="0.75" x1="17.59" x2="111.58" y1="204.4" y2="204.4"/>
  <line fill="none" id="svg_4" stroke="#0D0F0F" stroke-linecap="round" stroke-linejoin="round" stroke-miterlimit="8" stroke-width="0.75" x1="111.58" x2="137.95" y1="204.4" y2="156.79"/>
  <g id="svg_5">
   <g id="svg_6">
    <line fill="none" id="svg_7" stroke="#0D0F0F" stroke-dasharray="7.5,3" stroke-linecap="round" stroke-linejoin="round" stroke-width="0.75" x1="43.96" x2="47.71" y1="156.79" y2="156.79"/>
    <line fill="none" id="svg_8" stroke="#0D0F0F" stroke-dasharray="7.5,3" stroke-linecap="round" stroke-linejoin="round" stroke-width="0.75" x1="50.69" x2="132.71" y1="156.79" y2="156.79"/>
    <line fill="none" id="svg_9" stroke="#0D0F0F" stroke-dasharray="7.5,3" stroke-linecap="round" stroke-linejoin="round" stroke-width="0.75" x1="134.2" x2="137.95" y1="156.79" y2="156.79"/>
   </g>
  </g>
  <line fill="none" id="svg_10" stroke="#0D0F0F" stroke-linecap="round" stroke-linejoin="round" stroke-miterlimit="8" stroke-width="0.75" x1="17.59" x2="17.59" y1="204.4" y2="110.03"/>
  <line fill="none" id="svg_11" stroke="#0D0F0F" stroke-linecap="round" stroke-linejoin="round" stroke-miterlimit="8" stroke-width="0.75" x1="17.59" x2="43.96" y1="110.03" y2="62.42"/>
  <line fill="none" id="svg_12" stroke="#0D0F0F" stroke-linecap="round" stroke-linejoin="round" stroke-miterlimit="8" stroke-width="0.75" x1="17.59" x2="111.58" y1="110.03" y2="110.03"/>
  <line fill="none" id="svg_13" stroke="#0D0F0F" stroke-linecap="round" stroke-linejoin="round" stroke-miterlimit="8" stroke-width="0.75" x1="111.58" x2="137.95" y1="110.03" y2="62.42"/>
  <line fill="none" id="svg_14" stroke="#0D0F0F" stroke-linecap="round" stroke-linejoin="round" stroke-miterlimit="8" stroke-width="0.75" x1="43.96" x2="137.95" y1="62.42" y2="62.42"/>
  <g id="svg_15">
   <g id="svg_16">
    <line fill="none" id="svg_17" stroke="#0D0F0F" stroke-dasharray="7.5,3" stroke-linecap="round" stroke-linejoin="round" stroke-width="0.75" x1="43.96" x2="43.96" y1="156.79" y2="153.04"/>
    <line fill="none" id="svg_18" stroke="#0D0F0F" stroke-dasharray="7.5,3" stroke-linecap="round" stroke-linejoin="round" stroke-width="0.75" x1="43.96" x2="43.96" y1="150.05" y2="67.67"/>
    <line fill="none" id="svg_19" stroke="#0D0F0F" stroke-dasharray="7.5,3" stroke-linecap="round" stroke-linejoin="round" stroke-width="0.75" x1="43.96" x2="43.96" y1="66.17" y2="62.42"/>
   </g>
  </g>
  <line fill="none" id="svg_20" stroke="#0D0F0F" stroke-linecap="round" stroke-linejoin="round" stroke-miterlimit="8" stroke-width="0.75" x1="111.58" x2="111.58" y1="204.4" y2="110.03"/>
  <line fill="none" id="svg_21" stroke="#0D0F0F" stroke-linecap="round" stroke-linejoin="round" stroke-miterlimit="8" stroke-width="0.75" x1="137.95" x2="137.95" y1="156.79" y2="62.42"/>
  <line fill="none" id="svg_22" stroke="#7f00ff" stroke-linecap="round" stroke-linejoin="round" stroke-miterlimit="8" stroke-width="0.75" x1="111.58" x2="17.59" y1="204.4" y2="110.03"/>
  <line fill="none" id="svg_23" stroke="#7f00ff" stroke-linecap="round" stroke-linejoin="round" stroke-miterlimit="8" stroke-width="0.75" x1="111.58" x2="137.88" y1="204.4" y2="109.28"/>
  <line fill="none" id="svg_24" stroke="#5f00bf" stroke-linecap="round" stroke-linejoin="round" stroke-miterlimit="8" stroke-width="0.75" x1="17.59" x2="91.7" y1="110.03" y2="62.51"/>
  <g id="svg_25">
   <g id="svg_26">
    <g id="svg_27">
     <g id="svg_28">
      <g id="svg_29">
       <g id="svg_30">
        <g id="svg_31">
         <g id="svg_32">
          <g id="svg_33">
           <g id="svg_34">
            <g id="svg_35">
             <g id="svg_36">
              <g id="svg_37">
               <defs>
                <rect height="16.69" id="SVGID_1_" width="15.13" x="1.39" y="204.4"/>
               </defs>
               <clipPath id="SVGID_00000034082009789958194810000014492265374925757313_">
                <use id="svg_38" overflow="visible" xlink:href="#SVGID_1_"/>
               </clipPath>
               <g clip-path="url(#SVGID_00000034082009789958194810000014492265374925757313_)" id="svg_39">
                <g id="svg_40">
                 <path d="m12.89,207.95l-0.76,8.43c-0.04,0.4 -0.06,0.66 -0.06,0.78c0,0.2 0.04,0.35 0.11,0.46c0.09,0.14 0.22,0.25 0.38,0.32c0.16,0.07 0.43,0.1 0.81,0.1l-0.08,0.28l-3.95,0l0.09,-0.28l0.17,0c0.32,0 0.58,-0.07 0.78,-0.21c0.14,-0.09 0.25,-0.25 0.33,-0.47c0.06,-0.15 0.11,-0.52 0.16,-1.09l0.11,-1.28l-2.86,0l-1.02,1.39c-0.23,0.32 -0.38,0.54 -0.44,0.68c-0.06,0.14 -0.09,0.26 -0.09,0.38c0,0.16 0.07,0.3 0.2,0.41c0.13,0.12 0.34,0.18 0.63,0.19l-0.08,0.28l-2.96,0l0.08,-0.28c0.36,-0.01 0.69,-0.14 0.96,-0.37c0.28,-0.23 0.7,-0.72 1.25,-1.48l5.98,-8.24l0.26,0zm-1.46,2.49l-2.91,4l2.52,0l0.39,-4z" id="svg_41"/>
                </g>
               </g>
              </g>
             </g>
            </g>
           </g>
          </g>
         </g>
        </g>
       </g>
      </g>
     </g>
    </g>
   </g>
  </g>
  <g id="svg_42">
   <g id="svg_43">
    <g id="svg_44">
     <g id="svg_45">
      <g id="svg_46">
       <g id="svg_47">
        <g id="svg_48">
         <g id="svg_49">
          <g id="svg_50">
           <g id="svg_51">
            <g id="svg_52">
             <g id="svg_53">
              <g id="svg_54">
               <g id="svg_55">
                <defs>
                 <rect height="16.7" id="SVGID_00000024719524890338326470000003159343304026501543_" width="15.12" x="104.02" y="204.4"/>
                </defs>
                <clipPath id="SVGID_00000111171925661185909380000007828542260762708615_">
                 <use id="svg_56" overflow="visible" xlink:href="#SVGID_00000024719524890338326470000003159343304026501543_"/>
                </clipPath>
                <g clip-path="url(#SVGID_00000111171925661185909380000007828542260762708615_)" id="svg_57">
                 <g id="svg_58">
                  <path d="m109.22,208.46l0.1,-0.28l3.58,0c0.6,0 1.13,0.1 1.6,0.29c0.47,0.18 0.83,0.45 1.06,0.79c0.23,0.34 0.35,0.7 0.35,1.07c0,0.59 -0.21,1.11 -0.62,1.58s-1.1,0.82 -2.04,1.05c0.61,0.23 1.05,0.53 1.34,0.91c0.28,0.38 0.43,0.79 0.43,1.25c0,0.5 -0.13,0.98 -0.39,1.44c-0.25,0.46 -0.58,0.81 -0.98,1.07c-0.4,0.25 -0.89,0.44 -1.45,0.56c-0.41,0.08 -1.04,0.13 -1.89,0.13l-3.67,0l0.09,-0.28c0.39,-0.01 0.65,-0.05 0.78,-0.11c0.2,-0.09 0.34,-0.2 0.43,-0.34c0.11,-0.19 0.27,-0.62 0.47,-1.3l1.79,-6.14c0.16,-0.51 0.23,-0.88 0.23,-1.09c0,-0.18 -0.07,-0.33 -0.2,-0.43c-0.14,-0.11 -0.39,-0.16 -0.77,-0.16c-0.09,0 -0.17,-0.01 -0.24,-0.01zm0.04,9.2c0.54,0.07 0.95,0.1 1.25,0.1c0.77,0 1.45,-0.23 2.04,-0.7c0.6,-0.47 0.9,-1.1 0.9,-1.91c0,-0.61 -0.19,-1.09 -0.56,-1.43c-0.36,-0.34 -0.95,-0.52 -1.77,-0.52c-0.16,0 -0.35,0.01 -0.58,0.03l-1.28,4.43zm1.46,-4.99c0.32,0.01 0.55,0.01 0.69,0.01c1.03,0 1.79,-0.23 2.29,-0.68c0.5,-0.45 0.75,-1.01 0.75,-1.69c0,-0.51 -0.15,-0.91 -0.46,-1.2c-0.3,-0.28 -0.79,-0.43 -1.46,-0.43c-0.18,0 -0.4,0.03 -0.68,0.09l-1.13,3.9z" id="svg_59"/>
                 </g>
                </g>
               </g>
              </g>
             </g>
            </g>
           </g>
          </g>
         </g>
        </g>
       </g>
      </g>
     </g>
    </g>
   </g>
  </g>
  <g id="svg_60">
   <g id="svg_61">
    <g id="svg_62">
     <g id="svg_63">
      <g id="svg_64">
       <g id="svg_65">
        <g id="svg_66">
         <g id="svg_67">
          <g id="svg_68">
           <g id="svg_69">
            <g id="svg_70">
             <g id="svg_71">
              <g id="svg_72">
               <g id="svg_73">
                <defs>
                 <rect height="18.08" id="SVGID_00000029738464827686196650000013232023113289502891_" width="16.51" x="138.94" y="141.01"/>
                </defs>
                <clipPath id="SVGID_00000043444882804983895820000004885156635593396143_">
                 <use id="svg_74" overflow="visible" xlink:href="#SVGID_00000029738464827686196650000013232023113289502891_"/>
                </clipPath>
                <g clip-path="url(#SVGID_00000043444882804983895820000004885156635593396143_)" id="svg_75">
                 <g id="svg_76">
                  <path d="m151.66,144.57l-0.74,3.28l-0.27,0l-0.03,-0.83c-0.02,-0.29 -0.08,-0.56 -0.17,-0.8c-0.09,-0.23 -0.22,-0.43 -0.4,-0.6c-0.17,-0.18 -0.4,-0.31 -0.67,-0.41c-0.27,-0.09 -0.57,-0.14 -0.9,-0.14c-0.88,0 -1.65,0.24 -2.31,0.73c-0.85,0.62 -1.51,1.5 -1.98,2.64c-0.4,0.93 -0.59,1.88 -0.59,2.84c0,0.98 0.28,1.77 0.84,2.35s1.31,0.88 2.21,0.88c0.69,0 1.3,-0.16 1.83,-0.46c0.54,-0.31 1.03,-0.79 1.49,-1.43l0.35,0c-0.54,0.87 -1.14,1.51 -1.8,1.92c-0.66,0.41 -1.45,0.62 -2.38,0.62c-0.81,0 -1.54,-0.17 -2.17,-0.52c-0.63,-0.35 -1.11,-0.83 -1.44,-1.46c-0.33,-0.63 -0.49,-1.3 -0.49,-2.02c0,-1.11 0.29,-2.19 0.88,-3.23c0.58,-1.05 1.39,-1.87 2.41,-2.47c1.02,-0.59 2.05,-0.89 3.09,-0.89c0.49,0 1.03,0.11 1.64,0.35c0.27,0.1 0.46,0.15 0.58,0.15s0.22,-0.03 0.31,-0.08c0.08,-0.05 0.23,-0.19 0.44,-0.42l0.27,0z" id="svg_77"/>
                 </g>
                </g>
               </g>
              </g>
             </g>
            </g>
           </g>
          </g>
         </g>
        </g>
       </g>
      </g>
     </g>
    </g>
   </g>
  </g>
  <g id="svg_78">
   <g id="svg_79">
    <g id="svg_80">
     <g id="svg_81">
      <g id="svg_82">
       <g id="svg_83">
        <g id="svg_84">
         <g id="svg_85">
          <g id="svg_86">
           <g id="svg_87">
            <g id="svg_88">
             <g id="svg_89">
              <g id="svg_90">
               <g id="svg_91">
                <defs>
                 <rect height="16.7" id="SVGID_00000100380297690619226000000009029667258514101123_" width="16.51" x="25.03" y="141.7"/>
                </defs>
                <clipPath id="SVGID_00000057830569561922716030000009569392166221327531_">
                 <use id="svg_92" overflow="visible" xlink:href="#SVGID_00000100380297690619226000000009029667258514101123_"/>
                </clipPath>
                <g clip-path="url(#SVGID_00000057830569561922716030000009569392166221327531_)" id="svg_93">
                 <g id="svg_94">
                  <path d="m30.21,145.76l0.09,-0.28l3.2,0c1.35,0 2.36,0.16 3.01,0.47c0.65,0.31 1.17,0.81 1.56,1.48c0.39,0.68 0.58,1.4 0.58,2.18c0,0.66 -0.11,1.3 -0.33,1.93c-0.23,0.62 -0.48,1.12 -0.76,1.5c-0.29,0.38 -0.72,0.79 -1.31,1.24c-0.58,0.46 -1.22,0.79 -1.9,1.01s-1.54,0.32 -2.57,0.32l-4.24,0l0.1,-0.27c0.39,-0.01 0.65,-0.05 0.78,-0.11c0.2,-0.08 0.34,-0.2 0.44,-0.34c0.14,-0.21 0.3,-0.63 0.48,-1.26l1.77,-6.13c0.14,-0.49 0.21,-0.86 0.21,-1.14c0,-0.19 -0.07,-0.34 -0.19,-0.45c-0.13,-0.1 -0.38,-0.15 -0.76,-0.15l-0.16,0zm2.62,0.28l-2.17,7.59c-0.16,0.56 -0.24,0.92 -0.24,1.05c0,0.08 0.02,0.16 0.07,0.23c0.06,0.08 0.13,0.13 0.22,0.15c0.12,0.05 0.33,0.07 0.62,0.07c0.77,0 1.49,-0.08 2.15,-0.24c0.66,-0.17 1.2,-0.41 1.63,-0.73c0.6,-0.46 1.08,-1.1 1.44,-1.91s0.54,-1.74 0.54,-2.77c0,-1.17 -0.28,-2.04 -0.83,-2.61c-0.55,-0.58 -1.36,-0.86 -2.42,-0.86c-0.26,0 -0.59,0.01 -1.01,0.03z" id="svg_95"/>
                 </g>
                </g>
               </g>
              </g>
             </g>
            </g>
           </g>
          </g>
         </g>
        </g>
       </g>
      </g>
     </g>
    </g>
   </g>
  </g>
  <g id="svg_96">
   <g id="svg_97">
    <g id="svg_98">
     <g id="svg_99">
      <g id="svg_100">
       <g id="svg_101">
        <g id="svg_102">
         <g id="svg_103">
          <g id="svg_104">
           <g id="svg_105">
            <g id="svg_106">
             <g id="svg_107">
              <g id="svg_108">
               <g id="svg_109">
                <defs>
                 <rect height="16.7" id="SVGID_00000027597121981296110550000012768279229447804066_" width="15.13" x="139.63" y="101.26"/>
                </defs>
                <clipPath id="SVGID_00000183225233363502569950000014589920143150974112_">
                 <use id="svg_110" overflow="visible" xlink:href="#SVGID_00000027597121981296110550000012768279229447804066_"/>
                </clipPath>
                <g clip-path="url(#SVGID_00000183225233363502569950000014589920143150974112_)" id="svg_111">
                 <g id="svg_112">
                  <path d="m147.5,105.58l-1.14,4.01l0.94,0c0.67,0 1.15,-0.11 1.45,-0.31c0.3,-0.21 0.56,-0.59 0.78,-1.15l0.27,0l-1.03,3.68l-0.29,0c0.09,-0.31 0.13,-0.58 0.13,-0.79c0,-0.22 -0.04,-0.39 -0.13,-0.52c-0.08,-0.13 -0.2,-0.23 -0.35,-0.29c-0.15,-0.06 -0.47,-0.09 -0.95,-0.09l-0.95,0l-0.97,3.35c-0.1,0.33 -0.14,0.57 -0.14,0.74c0,0.13 0.06,0.25 0.18,0.35c0.09,0.07 0.3,0.1 0.63,0.1l0.89,0c0.96,0 1.73,-0.17 2.3,-0.51c0.58,-0.35 1.1,-0.95 1.56,-1.8l0.27,0l-0.94,2.82l-7.74,0l0.09,-0.28c0.39,-0.01 0.65,-0.04 0.78,-0.1c0.2,-0.09 0.34,-0.2 0.43,-0.34c0.13,-0.21 0.29,-0.64 0.47,-1.29l1.76,-6.11c0.14,-0.5 0.2,-0.87 0.2,-1.13c0,-0.19 -0.06,-0.34 -0.19,-0.45c-0.13,-0.1 -0.39,-0.16 -0.77,-0.16l-0.15,0l0.09,-0.27l7.19,0l-0.62,2.44l-0.27,0c0.03,-0.23 0.05,-0.42 0.05,-0.58c0,-0.26 -0.07,-0.48 -0.19,-0.66c-0.17,-0.23 -0.41,-0.4 -0.73,-0.52c-0.24,-0.09 -0.78,-0.14 -1.64,-0.14l-1.27,0z" id="svg_113"/>
                 </g>
                </g>
               </g>
              </g>
             </g>
            </g>
           </g>
          </g>
         </g>
        </g>
       </g>
      </g>
     </g>
    </g>
   </g>
  </g>
  <g id="svg_114">
   <g id="svg_115">
    <g id="svg_116">
     <g id="svg_117">
      <g id="svg_118">
       <g id="svg_119">
        <g id="svg_120">
         <g id="svg_121">
          <g id="svg_122">
           <g id="svg_123">
            <g id="svg_124">
             <g id="svg_125">
              <g id="svg_126">
               <g id="svg_127">
                <defs>
                 <rect height="16.7" id="SVGID_00000036219831353150647130000010109196777386382001_" width="16.51" x="81.98" y="42.91"/>
                </defs>
                <clipPath id="SVGID_00000052810346282184697320000010347872766740667313_">
                 <use id="svg_128" overflow="visible" xlink:href="#SVGID_00000036219831353150647130000010109196777386382001_"/>
                </clipPath>
                <g clip-path="url(#SVGID_00000052810346282184697320000010347872766740667313_)" id="svg_129">
                 <g id="svg_130">
                  <path d="m89.88,47.24l-1.18,4.01l1.32,0c0.59,0 1.03,-0.09 1.32,-0.28c0.29,-0.18 0.6,-0.58 0.91,-1.18l0.28,0l-1.04,3.69l-0.3,0c0.07,-0.3 0.11,-0.54 0.11,-0.74c0,-0.3 -0.1,-0.54 -0.3,-0.7c-0.2,-0.17 -0.57,-0.25 -1.12,-0.25l-1.33,0l-0.87,3.05c-0.16,0.55 -0.23,0.91 -0.23,1.09c0,0.18 0.06,0.32 0.2,0.42c0.13,0.1 0.47,0.17 0.99,0.21l-0.09,0.27l-3.96,0l0.1,-0.27c0.38,-0.01 0.64,-0.05 0.77,-0.11c0.19,-0.08 0.34,-0.2 0.43,-0.34c0.14,-0.21 0.29,-0.63 0.48,-1.27l1.76,-6.1c0.14,-0.5 0.22,-0.88 0.22,-1.16c0,-0.13 -0.04,-0.24 -0.1,-0.33c-0.06,-0.1 -0.16,-0.16 -0.28,-0.21c-0.13,-0.04 -0.38,-0.07 -0.75,-0.07l0.08,-0.27l7.78,0l-0.74,2.56l-0.28,0c0.05,-0.31 0.08,-0.56 0.08,-0.76c0,-0.33 -0.09,-0.59 -0.27,-0.78c-0.18,-0.19 -0.41,-0.33 -0.69,-0.41c-0.2,-0.05 -0.64,-0.08 -1.32,-0.08l-1.98,0l0,0.01z" id="svg_131"/>
                 </g>
                </g>
               </g>
              </g>
             </g>
            </g>
           </g>
          </g>
         </g>
        </g>
       </g>
      </g>
     </g>
    </g>
   </g>
  </g>
  <g id="svg_132">
   <g id="svg_133">
    <g id="svg_134">
     <g id="svg_135">
      <g id="svg_136">
       <g id="svg_137">
        <g id="svg_138">
         <g id="svg_139">
          <g id="svg_140">
           <g id="svg_141">
            <g id="svg_142">
             <g id="svg_143">
              <g id="svg_144">
               <g id="svg_145">
                <defs>
                 <rect height="22.29" id="SVGID_00000065055011301547955830000008158823836763390138_" width="17.9" y="87.59"/>
                </defs>
                <clipPath id="SVGID_00000143576593906321786820000001167117841271059079_">
                 <use id="svg_146" overflow="visible" xlink:href="#SVGID_00000065055011301547955830000008158823836763390138_"/>
                </clipPath>
                <g clip-path="url(#SVGID_00000143576593906321786820000001167117841271059079_)" id="svg_147">
                 <g id="svg_148">
                  <path d="m11.82,101.4l1.46,-0.73l0.15,0l0,5.14c0,0.34 0.01,0.55 0.04,0.63c0.03,0.09 0.09,0.15 0.18,0.2c0.09,0.04 0.27,0.07 0.54,0.07l0,0.17l-2.26,0l0,-0.17c0.28,0 0.47,-0.03 0.55,-0.07c0.08,-0.04 0.14,-0.1 0.17,-0.18s0.05,-0.29 0.05,-0.65l0,-3.28c0,-0.45 -0.02,-0.73 -0.04,-0.86c-0.02,-0.09 -0.06,-0.16 -0.12,-0.21c-0.05,-0.04 -0.12,-0.06 -0.19,-0.06c-0.11,0 -0.27,0.04 -0.46,0.13l-0.07,-0.13z" id="svg_149"/>
                 </g>
                </g>
               </g>
              </g>
             </g>
            </g>
           </g>
          </g>
         </g>
        </g>
       </g>
      </g>
     </g>
    </g>
   </g>
   <g id="svg_150">
    <g id="svg_151">
     <g id="svg_152">
      <g id="svg_153">
       <g id="svg_154">
        <g id="svg_155">
         <g id="svg_156">
          <g id="svg_157">
           <g id="svg_158">
            <g id="svg_159">
             <g id="svg_160">
              <g id="svg_161">
               <g id="svg_162">
                <defs>
                 <rect height="22.29" id="SVGID_00000082354680576157030640000007195721111798632117_" width="17.9" y="87.59"/>
                </defs>
                <clipPath id="SVGID_00000045610320463366107460000013126192558685796761_">
                 <use id="svg_163" overflow="visible" xlink:href="#SVGID_00000082354680576157030640000007195721111798632117_"/>
                </clipPath>
                <g clip-path="url(#SVGID_00000045610320463366107460000013126192558685796761_)" id="svg_164">
                 <g id="svg_165">
                  <path d="m11.49,92.53l-0.76,8.44c-0.04,0.4 -0.06,0.66 -0.06,0.78c0,0.2 0.04,0.35 0.11,0.46c0.1,0.14 0.22,0.25 0.38,0.32c0.16,0.07 0.43,0.11 0.81,0.11l-0.08,0.27l-3.94,0l0.08,-0.27l0.17,0c0.32,0 0.58,-0.07 0.78,-0.21c0.14,-0.1 0.25,-0.26 0.33,-0.48c0.06,-0.15 0.11,-0.51 0.16,-1.09l0.12,-1.28l-2.87,0l-1.02,1.39c-0.23,0.32 -0.38,0.54 -0.44,0.68c-0.06,0.14 -0.08,0.27 -0.08,0.39c0,0.16 0.06,0.29 0.19,0.41c0.13,0.11 0.34,0.17 0.63,0.19l-0.08,0.27l-2.96,0l0.08,-0.27c0.36,-0.02 0.69,-0.14 0.96,-0.38c0.28,-0.23 0.7,-0.72 1.25,-1.48l5.99,-8.25l0.25,0zm-1.46,2.5l-2.9,4l2.52,0l0.38,-4z" id="svg_166"/>
                 </g>
                </g>
               </g>
              </g>
             </g>
            </g>
           </g>
          </g>
         </g>
        </g>
       </g>
      </g>
     </g>
    </g>
   </g>
  </g>
  <g id="svg_167">
   <g id="svg_168">
    <g id="svg_169">
     <g id="svg_170">
      <g id="svg_171">
       <g id="svg_172">
        <g id="svg_173">
         <g id="svg_174">
          <g id="svg_175">
           <g id="svg_176">
            <g id="svg_177">
             <g id="svg_178">
              <g id="svg_179">
               <g id="svg_180">
                <defs>
                 <rect height="22.29" id="SVGID_00000018932913768787558730000005414083964501147327_" width="17.89" x="97.21" y="87.59"/>
                </defs>
                <clipPath id="SVGID_00000145038706040915846270000001257742249098080170_">
                 <use id="svg_181" overflow="visible" xlink:href="#SVGID_00000018932913768787558730000005414083964501147327_"/>
                </clipPath>
                <g clip-path="url(#SVGID_00000145038706040915846270000001257742249098080170_)" id="svg_182">
                 <g id="svg_183">
                  <path d="m109.02,101.39l1.46,-0.72l0.15,0l0,5.14c0,0.34 0.01,0.55 0.04,0.63c0.03,0.09 0.09,0.15 0.17,0.2c0.09,0.04 0.27,0.07 0.54,0.07l0,0.17l-2.25,0l0,-0.17c0.28,0 0.46,-0.03 0.54,-0.07c0.09,-0.04 0.15,-0.1 0.18,-0.18s0.05,-0.29 0.05,-0.65l0,-3.29c0,-0.44 -0.02,-0.72 -0.05,-0.85c-0.02,-0.09 -0.06,-0.16 -0.11,-0.21c-0.06,-0.04 -0.12,-0.07 -0.2,-0.07c-0.11,0 -0.26,0.05 -0.45,0.14l-0.07,-0.14z" id="svg_184"/>
                 </g>
                </g>
               </g>
              </g>
             </g>
            </g>
           </g>
          </g>
         </g>
        </g>
       </g>
      </g>
     </g>
    </g>
   </g>
   <g id="svg_185">
    <g id="svg_186">
     <g id="svg_187">
      <g id="svg_188">
       <g id="svg_189">
        <g id="svg_190">
         <g id="svg_191">
          <g id="svg_192">
           <g id="svg_193">
            <g id="svg_194">
             <g id="svg_195">
              <g id="svg_196">
               <g id="svg_197">
                <defs>
                 <rect height="22.29" id="SVGID_00000134226528723545813190000000801701021198920348_" width="17.89" x="97.21" y="87.59"/>
                </defs>
                <clipPath id="SVGID_00000170262915743614022970000002358267600774491045_">
                 <use id="svg_198" overflow="visible" xlink:href="#SVGID_00000134226528723545813190000000801701021198920348_"/>
                </clipPath>
                <g clip-path="url(#SVGID_00000170262915743614022970000002358267600774491045_)" id="svg_199">
                 <g id="svg_200">
                  <path d="m102.42,93.04l0.1,-0.27l3.58,0c0.6,0 1.14,0.09 1.61,0.28s0.82,0.45 1.05,0.79c0.24,0.34 0.36,0.7 0.36,1.08c0,0.58 -0.21,1.11 -0.63,1.58c-0.42,0.47 -1.09,0.82 -2.04,1.05c0.61,0.23 1.06,0.53 1.34,0.91c0.29,0.38 0.43,0.8 0.43,1.25c0,0.5 -0.13,0.98 -0.38,1.44s-0.59,0.82 -0.99,1.07c-0.4,0.26 -0.89,0.44 -1.45,0.56c-0.41,0.09 -1.04,0.13 -1.89,0.13l-3.68,0l0.1,-0.28c0.38,-0.01 0.65,-0.04 0.78,-0.11c0.2,-0.08 0.34,-0.19 0.42,-0.33c0.12,-0.19 0.28,-0.63 0.48,-1.31l1.79,-6.14c0.16,-0.52 0.23,-0.88 0.23,-1.09c0,-0.19 -0.07,-0.33 -0.2,-0.44c-0.14,-0.11 -0.39,-0.16 -0.77,-0.16c-0.09,0 -0.17,0 -0.24,-0.01zm0.04,9.21c0.54,0.07 0.95,0.11 1.25,0.11c0.77,0 1.45,-0.24 2.05,-0.71s0.89,-1.1 0.89,-1.9c0,-0.62 -0.19,-1.1 -0.55,-1.44c-0.37,-0.34 -0.96,-0.52 -1.78,-0.52c-0.16,0 -0.35,0.01 -0.58,0.03l-1.28,4.43zm1.46,-4.99c0.32,0 0.55,0.01 0.69,0.01c1.03,0 1.79,-0.23 2.29,-0.68c0.5,-0.45 0.75,-1.01 0.75,-1.69c0,-0.52 -0.15,-0.92 -0.46,-1.2c-0.3,-0.29 -0.79,-0.43 -1.46,-0.43c-0.18,0 -0.4,0.03 -0.68,0.09l-1.13,3.9z" id="svg_201"/>
                 </g>
                </g>
               </g>
              </g>
             </g>
            </g>
           </g>
          </g>
         </g>
        </g>
       </g>
      </g>
     </g>
    </g>
   </g>
  </g>
  <g id="svg_202">
   <g id="svg_203">
    <g id="svg_204">
     <g id="svg_205">
      <g id="svg_206">
       <g id="svg_207">
        <g id="svg_208">
         <g id="svg_209">
          <g id="svg_210">
           <g id="svg_211">
            <g id="svg_212">
             <g id="svg_213">
              <g id="svg_214">
               <g id="svg_215">
                <defs>
                 <rect height="22.29" id="SVGID_00000080195169817042944010000002104134883197020841_" width="17.89" x="131.5" y="41.65"/>
                </defs>
                <clipPath id="SVGID_00000073700779569186488910000013555949398986964921_">
                 <use id="svg_216" overflow="visible" xlink:href="#SVGID_00000080195169817042944010000002104134883197020841_"/>
                </clipPath>
                <g clip-path="url(#SVGID_00000073700779569186488910000013555949398986964921_)" id="svg_217">
                 <g id="svg_218">
                  <path d="m143.84,55.44l1.46,-0.72l0.15,0l0,5.13c0,0.34 0.01,0.55 0.04,0.64c0.02,0.08 0.08,0.15 0.17,0.19s0.27,0.07 0.54,0.08l0,0.16l-2.26,0l0,-0.16c0.29,-0.01 0.47,-0.03 0.55,-0.08c0.08,-0.04 0.14,-0.1 0.17,-0.17c0.04,-0.08 0.05,-0.29 0.05,-0.66l0,-3.28c0,-0.44 -0.01,-0.73 -0.04,-0.85c-0.02,-0.1 -0.06,-0.17 -0.11,-0.22c-0.06,-0.04 -0.12,-0.06 -0.2,-0.06c-0.11,0 -0.26,0.04 -0.46,0.14l-0.06,-0.14z" id="svg_219"/>
                 </g>
                </g>
               </g>
              </g>
             </g>
            </g>
           </g>
          </g>
         </g>
        </g>
       </g>
      </g>
     </g>
    </g>
   </g>
   <g id="svg_220">
    <g id="svg_221">
     <g id="svg_222">
      <g id="svg_223">
       <g id="svg_224">
        <g id="svg_225">
         <g id="svg_226">
          <g id="svg_227">
           <g id="svg_228">
            <g id="svg_229">
             <g id="svg_230">
              <g id="svg_231">
               <g id="svg_232">
                <defs>
                 <rect height="22.29" id="SVGID_00000117672572440563725520000013357415187095447442_" width="17.89" x="131.5" y="41.65"/>
                </defs>
                <clipPath id="SVGID_00000000940665246930682140000003089557707863134101_">
                 <use id="svg_233" overflow="visible" xlink:href="#SVGID_00000117672572440563725520000013357415187095447442_"/>
                </clipPath>
                <g clip-path="url(#SVGID_00000000940665246930682140000003089557707863134101_)" id="svg_234">
                 <g id="svg_235">
                  <path d="m144.21,46.59l-0.74,3.28l-0.27,0l-0.03,-0.82c-0.02,-0.3 -0.08,-0.56 -0.17,-0.8c-0.09,-0.23 -0.22,-0.44 -0.4,-0.61c-0.17,-0.17 -0.4,-0.31 -0.67,-0.4c-0.27,-0.1 -0.57,-0.15 -0.9,-0.15c-0.88,0 -1.65,0.25 -2.31,0.73c-0.85,0.63 -1.51,1.51 -1.99,2.64c-0.39,0.94 -0.59,1.89 -0.59,2.86c0,0.98 0.29,1.76 0.85,2.35s1.31,0.88 2.21,0.88c0.69,0 1.3,-0.16 1.83,-0.47c0.54,-0.31 1.03,-0.78 1.49,-1.43l0.35,0c-0.54,0.88 -1.14,1.52 -1.8,1.93c-0.66,0.41 -1.45,0.62 -2.38,0.62c-0.81,0 -1.54,-0.18 -2.17,-0.52s-1.11,-0.84 -1.44,-1.46c-0.33,-0.63 -0.5,-1.31 -0.5,-2.03c0,-1.11 0.3,-2.19 0.88,-3.23c0.59,-1.05 1.4,-1.87 2.42,-2.47c1.02,-0.6 2.05,-0.9 3.09,-0.9c0.49,0 1.03,0.12 1.64,0.35c0.27,0.1 0.46,0.15 0.58,0.15s0.22,-0.02 0.31,-0.07s0.23,-0.2 0.44,-0.43l0.27,0z" id="svg_236"/>
                 </g>
                </g>
               </g>
              </g>
             </g>
            </g>
           </g>
          </g>
         </g>
        </g>
       </g>
      </g>
     </g>
    </g>
   </g>
  </g>
  <g id="svg_237">
   <g id="svg_238">
    <g id="svg_239">
     <g id="svg_240">
      <g id="svg_241">
       <g id="svg_242">
        <g id="svg_243">
         <g id="svg_244">
          <g id="svg_245">
           <g id="svg_246">
            <g id="svg_247">
             <g id="svg_248">
              <g id="svg_249">
               <g id="svg_250">
                <defs>
                 <rect height="22.29" id="SVGID_00000086664222328861568890000010833395248838794422_" width="19.19" x="28.14" y="41.65"/>
                </defs>
                <clipPath id="SVGID_00000106830556812795962080000003898294135332767656_">
                 <use id="svg_251" overflow="visible" xlink:href="#SVGID_00000086664222328861568890000010833395248838794422_"/>
                </clipPath>
                <g clip-path="url(#SVGID_00000106830556812795962080000003898294135332767656_)" id="svg_252">
                 <g id="svg_253">
                  <path d="m41.54,55.44l1.46,-0.72l0.14,0l0,5.13c0,0.34 0.02,0.55 0.05,0.64c0.02,0.08 0.08,0.15 0.17,0.19s0.27,0.07 0.54,0.08l0,0.16l-2.25,0l0,-0.16c0.28,-0.01 0.46,-0.03 0.54,-0.08c0.09,-0.04 0.14,-0.1 0.18,-0.17c0.03,-0.08 0.05,-0.29 0.05,-0.66l0,-3.28c0,-0.44 -0.02,-0.73 -0.05,-0.85c-0.02,-0.1 -0.06,-0.17 -0.11,-0.22c-0.06,-0.04 -0.12,-0.06 -0.2,-0.06c-0.11,0 -0.26,0.04 -0.45,0.14l-0.07,-0.14z" id="svg_254"/>
                 </g>
                </g>
               </g>
              </g>
             </g>
            </g>
           </g>
          </g>
         </g>
        </g>
       </g>
      </g>
     </g>
    </g>
   </g>
   <g id="svg_255">
    <g id="svg_256">
     <g id="svg_257">
      <g id="svg_258">
       <g id="svg_259">
        <g id="svg_260">
         <g id="svg_261">
          <g id="svg_262">
           <g id="svg_263">
            <g id="svg_264">
             <g id="svg_265">
              <g id="svg_266">
               <g id="svg_267">
                <defs>
                 <rect height="22.29" id="SVGID_00000157996149132462286790000017595216001366754989_" width="19.19" x="28.14" y="41.65"/>
                </defs>
                <clipPath id="SVGID_00000155109400684670720160000016235129697156936331_">
                 <use id="svg_268" overflow="visible" xlink:href="#SVGID_00000157996149132462286790000017595216001366754989_"/>
                </clipPath>
                <g clip-path="url(#SVGID_00000155109400684670720160000016235129697156936331_)" id="svg_269">
                 <g id="svg_270">
                  <path d="m33.31,47.1l0.09,-0.28l3.19,0c1.35,0 2.35,0.16 3,0.47s1.17,0.81 1.56,1.49c0.39,0.67 0.58,1.4 0.58,2.17c0,0.67 -0.11,1.31 -0.33,1.94s-0.48,1.12 -0.76,1.5c-0.28,0.38 -0.72,0.79 -1.3,1.24c-0.59,0.46 -1.22,0.79 -1.9,1.01s-1.54,0.33 -2.56,0.33l-4.23,0l0.1,-0.28c0.39,-0.01 0.65,-0.04 0.78,-0.11c0.2,-0.08 0.34,-0.19 0.43,-0.34c0.15,-0.21 0.31,-0.63 0.48,-1.26l1.77,-6.14c0.14,-0.48 0.21,-0.86 0.21,-1.14c0,-0.19 -0.07,-0.34 -0.19,-0.44c-0.13,-0.11 -0.38,-0.16 -0.76,-0.16l-0.16,0zm2.62,0.28l-2.17,7.6c-0.16,0.56 -0.24,0.92 -0.24,1.05c0,0.08 0.02,0.16 0.08,0.23c0.05,0.08 0.12,0.13 0.21,0.15c0.12,0.05 0.33,0.07 0.61,0.07c0.78,0 1.49,-0.08 2.15,-0.24c0.66,-0.17 1.2,-0.41 1.63,-0.72c0.59,-0.47 1.07,-1.11 1.43,-1.92c0.36,-0.81 0.54,-1.74 0.54,-2.78c0,-1.17 -0.28,-2.04 -0.83,-2.61c-0.55,-0.57 -1.35,-0.86 -2.4,-0.86c-0.26,0 -0.6,0.01 -1.01,0.03z" id="svg_271"/>
                 </g>
                </g>
               </g>
              </g>
             </g>
            </g>
           </g>
          </g>
         </g>
        </g>
       </g>
      </g>
     </g>
    </g>
   </g>
  </g>
  <g id="svg_272">
   <g id="svg_273">
    <g id="svg_274">
     <g id="svg_275">
      <g id="svg_276">
       <g id="svg_277">
        <g id="svg_278">
         <g id="svg_279">
          <g id="svg_280">
           <g id="svg_281">
            <g id="svg_282">
             <g id="svg_283">
              <g id="svg_284">
               <g id="svg_285">
                <defs>
                 <rect height="16.7" id="SVGID_00000101062820961113413850000015506452490834466966_" width="17.89" x="163.55"/>
                </defs>
                <clipPath id="SVGID_00000052097757238144312440000002918456633590841011_">
                 <use id="svg_286" overflow="visible" xlink:href="#SVGID_00000101062820961113413850000015506452490834466966_"/>
                </clipPath>
                <g clip-path="url(#SVGID_00000052097757238144312440000002918456633590841011_)" id="svg_287">
                 <g id="svg_288">
                  <path d="m171.36,8.15l2.48,3.88c0.44,0.69 0.81,1.13 1.1,1.32c0.29,0.2 0.67,0.29 1.14,0.29l-0.08,0.28l-4.27,0l0.07,-0.28c0.34,-0.03 0.58,-0.12 0.72,-0.25c0.14,-0.13 0.21,-0.27 0.21,-0.44c0,-0.15 -0.03,-0.29 -0.07,-0.43c-0.04,-0.1 -0.19,-0.34 -0.43,-0.73l-2.03,-3.22l-0.99,3.35c-0.16,0.54 -0.24,0.9 -0.24,1.09c0,0.18 0.07,0.33 0.2,0.43c0.14,0.1 0.48,0.17 1.03,0.2l-0.12,0.28l-3.96,0l0.09,-0.28c0.39,-0.01 0.64,-0.04 0.78,-0.1c0.19,-0.09 0.34,-0.21 0.43,-0.35c0.13,-0.2 0.29,-0.63 0.48,-1.27l1.76,-6.12c0.14,-0.47 0.2,-0.84 0.2,-1.13c0,-0.2 -0.06,-0.35 -0.19,-0.45c-0.12,-0.11 -0.37,-0.16 -0.73,-0.16l-0.15,0l0.09,-0.28l3.76,0l-0.07,0.28c-0.31,-0.01 -0.54,0.03 -0.7,0.1c-0.21,0.11 -0.36,0.24 -0.46,0.41c-0.1,0.16 -0.25,0.57 -0.44,1.23l-0.77,2.6l3.56,-2.71c0.47,-0.36 0.78,-0.64 0.93,-0.85c0.09,-0.13 0.13,-0.25 0.13,-0.35c0,-0.09 -0.04,-0.18 -0.14,-0.27s-0.23,-0.14 -0.41,-0.16l0.07,-0.28l3.21,0l-0.07,0.28c-0.35,0.06 -0.64,0.14 -0.88,0.23c-0.24,0.1 -0.49,0.23 -0.74,0.4c-0.07,0.05 -0.55,0.42 -1.44,1.11l-3.06,2.35z" id="svg_289"/>
                 </g>
                </g>
               </g>
              </g>
             </g>
            </g>
           </g>
          </g>
         </g>
        </g>
       </g>
      </g>
     </g>
    </g>
   </g>
  </g>
  <line fill="none" id="svg_290" stroke="#7f00ff" stroke-dasharray="7.5,3" stroke-linecap="round" stroke-linejoin="round" stroke-width="0.75" x1="91.7" x2="137.95" y1="62.51" y2="109.03"/>
  <line fill="none" id="svg_291" stroke="#0D0F0F" stroke-dasharray="7.5,3" stroke-linecap="round" stroke-linejoin="round" stroke-width="0.75" x1="17.59" x2="43.96" y1="204.4" y2="156.79"/>
 </g>
</svg>