<?xml version="1.0"?>
<svg width="172.717" height="243.3486" xmlns="http://www.w3.org/2000/svg" xmlns:svg="http://www.w3.org/2000/svg" xmlns:xlink="http://www.w3.org/1999/xlink" enable-background="new 0 0 172.717 243.3486" version="1.1" xml:space="preserve">
 <g class="layer">
  <title>Layer 1</title>
  <polygon clip-rule="evenodd" fill="#d4aaff" fill-rule="evenodd" id="svg_1" opacity="0.5" points="16.94900131225586,166.52200317382812 36.66199493408203,80.50399780273438 154.5780029296875,191.1510009765625 " stroke="#3f007f"/>
  <line fill="none" id="svg_2" stroke="#5f00bf" stroke-dasharray="7.5,3" stroke-linecap="round" stroke-linejoin="round" stroke-miterlimit="8" stroke-width="0.75" x1="17.2" x2="154.83" y1="166.52" y2="191.15"/>
  <line fill="none" id="svg_3" stroke="#0D0F0F" stroke-linecap="round" stroke-linejoin="round" stroke-miterlimit="8" stroke-width="0.75" x1="17.2" x2="36.91" y1="166.52" y2="224.74"/>
  <line fill="none" id="svg_4" stroke="#0D0F0F" stroke-linecap="round" stroke-linejoin="round" stroke-miterlimit="8" stroke-width="0.75" x1="17.2" x2="154.83" y1="22.29" y2="46.91"/>
  <line fill="none" id="svg_5" stroke="#0D0F0F" stroke-dasharray="7.5,3" stroke-linecap="round" stroke-linejoin="round" stroke-miterlimit="8" stroke-width="0.75" x1="86.72" x2="36.91" y1="179.08" y2="224.74"/>
  <line fill="none" id="svg_6" stroke="#5f00bf" stroke-dasharray="7.5,3" stroke-linecap="round" stroke-linejoin="round" stroke-miterlimit="8" stroke-width="0.75" x1="86.72" x2="36.91" y1="179.08" y2="80.5"/>
  <line fill="none" id="svg_7" stroke="#5f00bf" stroke-linecap="round" stroke-linejoin="round" stroke-miterlimit="8" stroke-width="0.75" x1="36.91" x2="17.2" y1="80.5" y2="166.52"/>
  <line fill="none" id="svg_8" stroke="#5f00bf" stroke-linecap="round" stroke-linejoin="round" stroke-miterlimit="8" stroke-width="0.75" x1="36.41" x2="154.33" y1="80.5" y2="191.15"/>
  <line fill="none" id="svg_9" stroke="#0D0F0F" stroke-linecap="round" stroke-linejoin="round" stroke-miterlimit="8" stroke-width="0.75" x1="81.13" x2="73.5" y1="184.2" y2="182.78"/>
  <line fill="none" id="svg_10" stroke="#0D0F0F" stroke-linecap="round" stroke-linejoin="round" stroke-miterlimit="8" stroke-width="0.75" x1="73.5" x2="79.13" y1="182.78" y2="177.6"/>
  <line fill="none" id="svg_11" stroke="#0D0F0F" stroke-linecap="round" stroke-linejoin="round" stroke-miterlimit="8" stroke-width="0.75" x1="83.51" x2="92.62" y1="172.74" y2="174.28"/>
  <line fill="none" id="svg_12" stroke="#0D0F0F" stroke-linecap="round" stroke-linejoin="round" stroke-miterlimit="8" stroke-width="0.75" x1="92.62" x2="95.04" y1="174.28" y2="180.45"/>
  <g id="svg_13">
   <g id="svg_14">
    <g id="svg_15">
     <g id="svg_16">
      <g id="svg_17">
       <g id="svg_18">
        <g id="svg_19">
         <g id="svg_20">
          <g id="svg_21">
           <g id="svg_22">
            <g id="svg_23">
             <g id="svg_24">
              <g id="svg_25">
               <g id="svg_26">
                <defs>
                 <rect height="16.69" id="SVGID_1_" width="15.13" x="24.36" y="224.74"/>
                </defs>
                <clipPath id="SVGID_00000029755565627509777510000007699744364759358379_">
                 <use id="svg_27" overflow="visible" xlink:href="#SVGID_1_"/>
                </clipPath>
                <g clip-path="url(#SVGID_00000029755565627509777510000007699744364759358379_)" id="svg_28">
                 <g id="svg_29">
                  <path d="m35.87,228.29l-0.76,8.43c-0.04,0.39 -0.06,0.65 -0.06,0.78c0,0.2 0.04,0.35 0.11,0.45c0.09,0.15 0.22,0.25 0.38,0.32c0.16,0.07 0.43,0.11 0.81,0.11l-0.08,0.28l-3.95,0l0.09,-0.28l0.16,0c0.32,0 0.59,-0.07 0.79,-0.21c0.14,-0.09 0.25,-0.25 0.33,-0.47c0.05,-0.16 0.11,-0.52 0.15,-1.09l0.12,-1.29l-2.86,0l-1.02,1.4c-0.23,0.31 -0.38,0.54 -0.44,0.68c-0.06,0.13 -0.09,0.26 -0.09,0.38c0,0.16 0.07,0.3 0.2,0.41c0.12,0.12 0.34,0.18 0.63,0.19l-0.08,0.28l-2.96,0l0.08,-0.28c0.36,-0.02 0.69,-0.14 0.96,-0.37c0.28,-0.23 0.7,-0.73 1.25,-1.48l5.98,-8.24l0.26,0l0,0zm-1.46,2.49l-2.91,4l2.52,0l0.39,-4z" id="svg_30"/>
                 </g>
                </g>
               </g>
              </g>
             </g>
            </g>
           </g>
          </g>
         </g>
        </g>
       </g>
      </g>
     </g>
    </g>
   </g>
  </g>
  <g id="svg_31">
   <g id="svg_32">
    <g id="svg_33">
     <g id="svg_34">
      <g id="svg_35">
       <g id="svg_36">
        <g id="svg_37">
         <g id="svg_38">
          <g id="svg_39">
           <g id="svg_40">
            <g id="svg_41">
             <g id="svg_42">
              <g id="svg_43">
               <g id="svg_44">
                <g id="svg_45">
                 <defs>
                  <rect height="16.7" id="SVGID_00000009550965513973547150000013584895612105605256_" width="15.12" x="153.46" y="191.15"/>
                 </defs>
                 <clipPath id="SVGID_00000152252787251421182950000003597455401511985593_">
                  <use id="svg_46" overflow="visible" xlink:href="#SVGID_00000009550965513973547150000013584895612105605256_"/>
                 </clipPath>
                 <g clip-path="url(#SVGID_00000152252787251421182950000003597455401511985593_)" id="svg_47">
                  <g id="svg_48">
                   <path d="m158.66,195.21l0.11,-0.28l3.57,0c0.6,0 1.14,0.09 1.61,0.28c0.47,0.19 0.82,0.46 1.05,0.8c0.24,0.33 0.35,0.69 0.35,1.07c0,0.59 -0.2,1.11 -0.62,1.58s-1.09,0.82 -2.03,1.04c0.6,0.23 1.05,0.54 1.33,0.92c0.29,0.38 0.43,0.79 0.43,1.24c0,0.51 -0.13,0.99 -0.38,1.45c-0.26,0.46 -0.59,0.81 -0.99,1.07c-0.4,0.25 -0.88,0.44 -1.45,0.56c-0.4,0.08 -1.03,0.12 -1.89,0.12l-3.67,0l0.09,-0.27c0.39,-0.01 0.65,-0.05 0.79,-0.12c0.19,-0.08 0.33,-0.19 0.42,-0.33c0.12,-0.19 0.27,-0.62 0.47,-1.3l1.8,-6.14c0.15,-0.52 0.22,-0.88 0.22,-1.09c0,-0.18 -0.06,-0.33 -0.2,-0.44c-0.13,-0.1 -0.39,-0.16 -0.77,-0.16c-0.08,0 -0.16,0 -0.24,0zm0.05,9.2c0.53,0.07 0.95,0.1 1.25,0.1c0.76,0 1.44,-0.23 2.04,-0.7c0.59,-0.47 0.89,-1.11 0.89,-1.91c0,-0.61 -0.19,-1.09 -0.55,-1.43c-0.37,-0.35 -0.96,-0.52 -1.78,-0.52c-0.16,0 -0.35,0.01 -0.57,0.02l-1.28,4.44zm1.45,-5c0.32,0.01 0.55,0.02 0.7,0.02c1.02,0 1.78,-0.23 2.28,-0.68c0.5,-0.45 0.75,-1.01 0.75,-1.69c0,-0.51 -0.15,-0.91 -0.46,-1.2c-0.3,-0.29 -0.79,-0.43 -1.46,-0.43c-0.18,0 -0.4,0.03 -0.68,0.09l-1.13,3.89z" id="svg_49"/>
                  </g>
                 </g>
                </g>
               </g>
              </g>
             </g>
            </g>
           </g>
          </g>
         </g>
        </g>
       </g>
      </g>
     </g>
    </g>
   </g>
  </g>
  <g id="svg_50">
   <g id="svg_51">
    <g id="svg_52">
     <g id="svg_53">
      <g id="svg_54">
       <g id="svg_55">
        <g id="svg_56">
         <g id="svg_57">
          <g id="svg_58">
           <g id="svg_59">
            <g id="svg_60">
             <g id="svg_61">
              <g id="svg_62">
               <g id="svg_63">
                <g id="svg_64">
                 <defs>
                  <rect height="18.08" id="SVGID_00000178167151267350580380000005551405138277114522_" width="16.51" x="0.69" y="164.47"/>
                 </defs>
                 <clipPath id="SVGID_00000172408918178393083520000003721748788147166651_">
                  <use id="svg_65" overflow="visible" xlink:href="#SVGID_00000178167151267350580380000005551405138277114522_"/>
                 </clipPath>
                 <g clip-path="url(#SVGID_00000172408918178393083520000003721748788147166651_)" id="svg_66">
                  <g id="svg_67">
                   <path d="m13.41,168.02l-0.75,3.28l-0.26,0l-0.03,-0.82c-0.03,-0.3 -0.08,-0.56 -0.17,-0.8c-0.09,-0.23 -0.22,-0.43 -0.4,-0.61s-0.4,-0.3 -0.67,-0.4s-0.57,-0.14 -0.9,-0.14c-0.89,0 -1.66,0.24 -2.32,0.73c-0.84,0.62 -1.5,1.5 -1.98,2.63c-0.39,0.94 -0.59,1.89 -0.59,2.85c0,0.98 0.28,1.76 0.85,2.35s1.3,0.88 2.21,0.88c0.68,0 1.29,-0.16 1.83,-0.47c0.53,-0.31 1.03,-0.78 1.49,-1.42l0.35,0c-0.55,0.87 -1.15,1.51 -1.81,1.92c-0.66,0.41 -1.45,0.62 -2.37,0.62c-0.82,0 -1.54,-0.18 -2.17,-0.52c-0.63,-0.35 -1.11,-0.84 -1.44,-1.46c-0.33,-0.63 -0.5,-1.31 -0.5,-2.03c0,-1.1 0.3,-2.18 0.88,-3.22c0.59,-1.05 1.39,-1.87 2.41,-2.47s2.06,-0.9 3.1,-0.9c0.48,0 1.03,0.12 1.64,0.36c0.26,0.1 0.45,0.15 0.57,0.15s0.22,-0.03 0.31,-0.08c0.09,-0.05 0.24,-0.19 0.45,-0.43l0.27,0l0,0z" id="svg_68"/>
                  </g>
                 </g>
                </g>
               </g>
              </g>
             </g>
            </g>
           </g>
          </g>
         </g>
        </g>
       </g>
      </g>
     </g>
    </g>
   </g>
  </g>
  <g id="svg_69">
   <g id="svg_70">
    <g id="svg_71">
     <g id="svg_72">
      <g id="svg_73">
       <g id="svg_74">
        <g id="svg_75">
         <g id="svg_76">
          <g id="svg_77">
           <g id="svg_78">
            <g id="svg_79">
             <g id="svg_80">
              <g id="svg_81">
               <g id="svg_82">
                <g id="svg_83">
                 <defs>
                  <rect height="16.7" id="SVGID_00000163067580052958584490000009359951287102628498_" width="19.2" x="81.13" y="180.45"/>
                 </defs>
                 <clipPath id="SVGID_00000151527220874850717750000017796157619000669356_">
                  <use id="svg_84" overflow="visible" xlink:href="#SVGID_00000163067580052958584490000009359951287102628498_"/>
                 </clipPath>
                 <g clip-path="url(#SVGID_00000151527220874850717750000017796157619000669356_)" id="svg_85">
                  <g id="svg_86">
                   <path d="m87.81,188.75l4.61,0l0.73,-2.5c0.14,-0.49 0.21,-0.87 0.21,-1.14c0,-0.13 -0.03,-0.24 -0.1,-0.33c-0.06,-0.09 -0.15,-0.16 -0.28,-0.21c-0.13,-0.04 -0.38,-0.06 -0.75,-0.06l0.07,-0.28l4.02,0l-0.08,0.28c-0.34,-0.01 -0.6,0.03 -0.76,0.1c-0.24,0.11 -0.41,0.24 -0.53,0.41c-0.16,0.23 -0.32,0.64 -0.49,1.23l-1.76,6.12c-0.15,0.51 -0.22,0.87 -0.22,1.09c0,0.19 0.06,0.33 0.2,0.43c0.13,0.1 0.44,0.16 0.93,0.2l-0.08,0.28l-3.89,0l0.1,-0.28c0.38,-0.01 0.64,-0.05 0.77,-0.11c0.19,-0.09 0.33,-0.2 0.42,-0.34c0.13,-0.19 0.29,-0.62 0.47,-1.27l0.9,-3.1l-4.63,0l-0.91,3.1c-0.14,0.5 -0.21,0.86 -0.21,1.09c0,0.19 0.06,0.33 0.19,0.43c0.13,0.1 0.44,0.16 0.93,0.2l-0.06,0.28l-3.92,0l0.1,-0.28c0.39,-0.01 0.64,-0.05 0.77,-0.11c0.2,-0.09 0.34,-0.2 0.44,-0.34c0.12,-0.2 0.28,-0.63 0.47,-1.27l1.76,-6.12c0.15,-0.5 0.22,-0.88 0.22,-1.14c0,-0.13 -0.03,-0.24 -0.09,-0.33c-0.06,-0.09 -0.16,-0.16 -0.29,-0.21c-0.13,-0.04 -0.39,-0.06 -0.76,-0.06l0.09,-0.28l3.94,0l-0.08,0.28c-0.33,-0.01 -0.58,0.03 -0.73,0.1c-0.23,0.1 -0.4,0.23 -0.51,0.4c-0.15,0.22 -0.31,0.63 -0.49,1.24l-0.72,2.5z" id="svg_87"/>
                  </g>
                 </g>
                </g>
               </g>
              </g>
             </g>
            </g>
           </g>
          </g>
         </g>
        </g>
       </g>
      </g>
     </g>
    </g>
   </g>
  </g>
  <g id="svg_88">
   <g id="svg_89">
    <g id="svg_90">
     <g id="svg_91">
      <g id="svg_92">
       <g id="svg_93">
        <g id="svg_94">
         <g id="svg_95">
          <g id="svg_96">
           <g id="svg_97">
            <g id="svg_98">
             <g id="svg_99">
              <g id="svg_100">
               <g id="svg_101">
                <g id="svg_102">
                 <defs>
                  <rect height="22.29" id="SVGID_00000007402148979006960930000013671186088173664938_" width="17.9" x="34.63" y="54.92"/>
                 </defs>
                 <clipPath id="SVGID_00000111191241011964665090000002239229554347521930_">
                  <use id="svg_103" overflow="visible" xlink:href="#SVGID_00000007402148979006960930000013671186088173664938_"/>
                 </clipPath>
                 <g clip-path="url(#SVGID_00000111191241011964665090000002239229554347521930_)" id="svg_104">
                  <g id="svg_105">
                   <path d="m46.46,68.72l1.46,-0.72l0.14,0l0,5.14c0,0.34 0.02,0.55 0.05,0.63c0.03,0.09 0.08,0.15 0.17,0.2c0.09,0.04 0.27,0.07 0.54,0.07l0,0.17l-2.26,0l0,-0.17c0.29,0 0.47,-0.03 0.55,-0.07c0.08,-0.05 0.14,-0.1 0.18,-0.18c0.03,-0.07 0.04,-0.29 0.04,-0.65l0,-3.29c0,-0.44 -0.01,-0.72 -0.04,-0.85c-0.02,-0.09 -0.06,-0.16 -0.11,-0.21c-0.06,-0.04 -0.12,-0.07 -0.2,-0.07c-0.11,0 -0.26,0.05 -0.46,0.14l-0.06,-0.14z" id="svg_106"/>
                  </g>
                 </g>
                </g>
               </g>
              </g>
             </g>
            </g>
           </g>
          </g>
         </g>
        </g>
       </g>
      </g>
     </g>
    </g>
   </g>
   <g id="svg_107">
    <g id="svg_108">
     <g id="svg_109">
      <g id="svg_110">
       <g id="svg_111">
        <g id="svg_112">
         <g id="svg_113">
          <g id="svg_114">
           <g id="svg_115">
            <g id="svg_116">
             <g id="svg_117">
              <g id="svg_118">
               <g id="svg_119">
                <g id="svg_120">
                 <defs>
                  <rect height="22.29" id="SVGID_00000178902877074393693330000008761423631862664622_" width="17.9" x="34.63" y="54.92"/>
                 </defs>
                 <clipPath id="SVGID_00000096773424888124239360000001217228289947857046_">
                  <use id="svg_121" overflow="visible" xlink:href="#SVGID_00000178902877074393693330000008761423631862664622_"/>
                 </clipPath>
                 <g clip-path="url(#SVGID_00000096773424888124239360000001217228289947857046_)" id="svg_122">
                  <g id="svg_123">
                   <path d="m46.13,59.86l-0.76,8.44c-0.04,0.4 -0.06,0.66 -0.06,0.78c0,0.2 0.03,0.35 0.11,0.46c0.09,0.14 0.22,0.25 0.38,0.32c0.16,0.07 0.43,0.1 0.81,0.1l-0.08,0.28l-3.95,0l0.08,-0.28l0.17,0c0.32,0 0.58,-0.07 0.79,-0.21c0.14,-0.09 0.25,-0.25 0.33,-0.47c0.05,-0.15 0.1,-0.52 0.15,-1.09l0.12,-1.29l-2.87,0l-1.02,1.4c-0.23,0.32 -0.37,0.54 -0.43,0.68c-0.06,0.14 -0.09,0.27 -0.09,0.39c0,0.15 0.06,0.29 0.19,0.41c0.13,0.11 0.34,0.17 0.64,0.18l-0.08,0.28l-2.97,0l0.08,-0.28c0.37,-0.01 0.69,-0.13 0.97,-0.37c0.28,-0.23 0.69,-0.72 1.24,-1.48l5.99,-8.25c0,0 0.26,0 0.26,0zm-1.47,2.49l-2.9,4.01l2.52,0l0.38,-4.01z" id="svg_124"/>
                  </g>
                 </g>
                </g>
               </g>
              </g>
             </g>
            </g>
           </g>
          </g>
         </g>
        </g>
       </g>
      </g>
     </g>
    </g>
   </g>
  </g>
  <g id="svg_125">
   <g id="svg_126">
    <g id="svg_127">
     <g id="svg_128">
      <g id="svg_129">
       <g id="svg_130">
        <g id="svg_131">
         <g id="svg_132">
          <g id="svg_133">
           <g id="svg_134">
            <g id="svg_135">
             <g id="svg_136">
              <g id="svg_137">
               <g id="svg_138">
                <g id="svg_139">
                 <defs>
                  <rect height="22.29" id="SVGID_00000035497480181944643200000000719389321798446219_" width="17.89" x="154.83" y="29.11"/>
                 </defs>
                 <clipPath id="SVGID_00000161632700028844050190000006186821773349058438_">
                  <use id="svg_140" overflow="visible" xlink:href="#SVGID_00000035497480181944643200000000719389321798446219_"/>
                 </clipPath>
                 <g clip-path="url(#SVGID_00000161632700028844050190000006186821773349058438_)" id="svg_141">
                  <g id="svg_142">
                   <path d="m166.64,42.91l1.46,-0.72l0.15,0l0,5.13c0,0.34 0.01,0.56 0.04,0.64c0.03,0.08 0.09,0.15 0.18,0.19c0.08,0.05 0.26,0.07 0.54,0.08l0,0.16l-2.26,0l0,-0.16c0.28,-0.01 0.46,-0.03 0.55,-0.08c0.08,-0.04 0.14,-0.1 0.17,-0.17c0.03,-0.07 0.05,-0.29 0.05,-0.66l0,-3.28c0,-0.44 -0.02,-0.73 -0.05,-0.85c-0.02,-0.1 -0.05,-0.17 -0.11,-0.21c-0.05,-0.05 -0.12,-0.07 -0.2,-0.07c-0.11,0 -0.26,0.05 -0.45,0.14l-0.07,-0.14z" id="svg_143"/>
                  </g>
                 </g>
                </g>
               </g>
              </g>
             </g>
            </g>
           </g>
          </g>
         </g>
        </g>
       </g>
      </g>
     </g>
    </g>
   </g>
   <g id="svg_144">
    <g id="svg_145">
     <g id="svg_146">
      <g id="svg_147">
       <g id="svg_148">
        <g id="svg_149">
         <g id="svg_150">
          <g id="svg_151">
           <g id="svg_152">
            <g id="svg_153">
             <g id="svg_154">
              <g id="svg_155">
               <g id="svg_156">
                <g id="svg_157">
                 <defs>
                  <rect height="22.29" id="SVGID_00000093862263143617434770000009575147036557472165_" width="17.89" x="154.83" y="29.11"/>
                 </defs>
                 <clipPath id="SVGID_00000128467253583616957180000003597061159128701624_">
                  <use id="svg_158" overflow="visible" xlink:href="#SVGID_00000093862263143617434770000009575147036557472165_"/>
                 </clipPath>
                 <g clip-path="url(#SVGID_00000128467253583616957180000003597061159128701624_)" id="svg_159">
                  <g id="svg_160">
                   <path d="m160.04,34.56l0.1,-0.28l3.58,0c0.6,0 1.14,0.1 1.61,0.29c0.47,0.19 0.82,0.45 1.06,0.79c0.23,0.34 0.35,0.7 0.35,1.08c0,0.58 -0.21,1.11 -0.63,1.58c-0.41,0.47 -1.09,0.82 -2.03,1.04c0.6,0.23 1.05,0.54 1.33,0.92c0.29,0.38 0.43,0.79 0.43,1.25c0,0.5 -0.13,0.98 -0.38,1.44c-0.26,0.46 -0.59,0.81 -0.99,1.07c-0.4,0.25 -0.88,0.44 -1.45,0.56c-0.4,0.09 -1.04,0.13 -1.89,0.13l-3.68,0l0.1,-0.28c0.38,-0.01 0.65,-0.05 0.78,-0.11c0.2,-0.09 0.34,-0.2 0.43,-0.34c0.11,-0.19 0.27,-0.62 0.47,-1.3l1.79,-6.14c0.16,-0.52 0.23,-0.89 0.23,-1.1c0,-0.18 -0.07,-0.33 -0.2,-0.43c-0.14,-0.11 -0.39,-0.16 -0.77,-0.16c-0.09,0 -0.17,-0.01 -0.24,-0.01zm0.05,9.21c0.53,0.07 0.94,0.1 1.24,0.1c0.77,0 1.45,-0.23 2.05,-0.7c0.59,-0.47 0.89,-1.1 0.89,-1.91c0,-0.61 -0.19,-1.09 -0.55,-1.43c-0.37,-0.35 -0.96,-0.52 -1.78,-0.52c-0.16,0 -0.35,0.01 -0.58,0.02l-1.27,4.44zm1.45,-5c0.32,0.01 0.55,0.02 0.7,0.02c1.02,0 1.78,-0.23 2.28,-0.68c0.5,-0.45 0.75,-1.02 0.75,-1.7c0,-0.51 -0.15,-0.91 -0.46,-1.2c-0.3,-0.28 -0.79,-0.43 -1.46,-0.43c-0.18,0 -0.4,0.03 -0.68,0.09l-1.13,3.9z" id="svg_161"/>
                  </g>
                 </g>
                </g>
               </g>
              </g>
             </g>
            </g>
           </g>
          </g>
         </g>
        </g>
       </g>
      </g>
     </g>
    </g>
   </g>
  </g>
  <g id="svg_162">
   <g id="svg_163">
    <g id="svg_164">
     <g id="svg_165">
      <g id="svg_166">
       <g id="svg_167">
        <g id="svg_168">
         <g id="svg_169">
          <g id="svg_170">
           <g id="svg_171">
            <g id="svg_172">
             <g id="svg_173">
              <g id="svg_174">
               <g id="svg_175">
                <g id="svg_176">
                 <defs>
                  <rect height="22.29" id="SVGID_00000178177314309459419860000007071613969335543683_" width="17.89" y="0"/>
                 </defs>
                 <clipPath id="SVGID_00000174601255638946302270000018072471412160890281_">
                  <use id="svg_177" overflow="visible" xlink:href="#SVGID_00000178177314309459419860000007071613969335543683_"/>
                 </clipPath>
                 <g clip-path="url(#SVGID_00000174601255638946302270000018072471412160890281_)" id="svg_178">
                  <g id="svg_179">
                   <path d="m12.34,13.79l1.46,-0.73l0.14,0l0,5.14c0,0.34 0.02,0.55 0.05,0.64c0.02,0.08 0.08,0.14 0.17,0.19c0.09,0.04 0.27,0.07 0.54,0.08l0,0.16l-2.26,0l0,-0.16c0.29,-0.01 0.47,-0.03 0.55,-0.08c0.08,-0.04 0.14,-0.1 0.17,-0.17s0.05,-0.3 0.05,-0.66l0,-3.28c0,-0.44 -0.01,-0.73 -0.04,-0.85c-0.02,-0.1 -0.06,-0.17 -0.11,-0.22c-0.06,-0.04 -0.12,-0.06 -0.2,-0.06c-0.11,0 -0.26,0.04 -0.46,0.14l-0.06,-0.14z" id="svg_180"/>
                  </g>
                 </g>
                </g>
               </g>
              </g>
             </g>
            </g>
           </g>
          </g>
         </g>
        </g>
       </g>
      </g>
     </g>
    </g>
   </g>
   <g id="svg_181">
    <g id="svg_182">
     <g id="svg_183">
      <g id="svg_184">
       <g id="svg_185">
        <g id="svg_186">
         <g id="svg_187">
          <g id="svg_188">
           <g id="svg_189">
            <g id="svg_190">
             <g id="svg_191">
              <g id="svg_192">
               <g id="svg_193">
                <g id="svg_194">
                 <defs>
                  <rect height="22.29" id="SVGID_00000059271737489318293740000002801411865980743853_" width="17.89" y="0"/>
                 </defs>
                 <clipPath id="SVGID_00000161602870619158349520000008658439893185360553_">
                  <use id="svg_195" overflow="visible" xlink:href="#SVGID_00000059271737489318293740000002801411865980743853_"/>
                 </clipPath>
                 <g clip-path="url(#SVGID_00000161602870619158349520000008658439893185360553_)" id="svg_196">
                  <g id="svg_197">
                   <path d="m12.71,4.94l-0.74,3.28l-0.27,0l-0.03,-0.82c-0.02,-0.3 -0.08,-0.57 -0.17,-0.8c-0.09,-0.23 -0.22,-0.44 -0.4,-0.61c-0.17,-0.17 -0.4,-0.31 -0.67,-0.4c-0.27,-0.1 -0.57,-0.15 -0.9,-0.15c-0.88,0 -1.65,0.25 -2.31,0.73c-0.85,0.63 -1.51,1.51 -1.99,2.64c-0.39,0.94 -0.59,1.89 -0.59,2.85c0,0.99 0.29,1.77 0.85,2.36c0.57,0.58 1.31,0.88 2.21,0.88c0.69,0 1.3,-0.16 1.83,-0.47s1.03,-0.78 1.49,-1.43l0.35,0c-0.54,0.88 -1.14,1.52 -1.8,1.93c-0.66,0.41 -1.46,0.62 -2.38,0.62c-0.81,0 -1.54,-0.18 -2.17,-0.52s-1.11,-0.84 -1.44,-1.46c-0.33,-0.63 -0.5,-1.31 -0.5,-2.03c0,-1.11 0.3,-2.19 0.88,-3.23c0.59,-1.05 1.39,-1.87 2.42,-2.47c1.02,-0.6 2.05,-0.9 3.09,-0.9c0.49,0 1.03,0.12 1.64,0.35c0.27,0.1 0.46,0.15 0.58,0.15s0.22,-0.02 0.31,-0.07s0.23,-0.2 0.44,-0.43l0.27,0z" id="svg_198"/>
                  </g>
                 </g>
                </g>
               </g>
              </g>
             </g>
            </g>
           </g>
          </g>
         </g>
        </g>
       </g>
      </g>
     </g>
    </g>
   </g>
  </g>
  <line fill="none" id="svg_199" stroke="#0D0F0F" stroke-linecap="round" stroke-linejoin="round" stroke-miterlimit="8" stroke-width="0.75" x1="36.91" x2="36.91" y1="224.74" y2="80.5"/>
  <line fill="none" id="svg_200" stroke="#0D0F0F" stroke-linecap="round" stroke-linejoin="round" stroke-miterlimit="8" stroke-width="0.75" x1="154.83" x2="36.91" y1="46.91" y2="80.5"/>
  <line fill="none" id="svg_201" stroke="#0D0F0F" stroke-linecap="round" stroke-linejoin="round" stroke-miterlimit="8" stroke-width="0.7" x1="17.2" x2="36.91" y1="22.29" y2="80.5"/>
  <line fill="none" id="svg_202" stroke="#0D0F0F" stroke-linecap="round" stroke-linejoin="round" stroke-miterlimit="8" stroke-width="0.75" x1="17.2" x2="17.2" y1="166.52" y2="22.29"/>
  <line fill="none" id="svg_203" stroke="#0D0F0F" stroke-linecap="round" stroke-linejoin="round" stroke-miterlimit="8" stroke-width="0.75" x1="154.83" x2="36.91" y1="191.15" y2="224.74"/>
  <line fill="none" id="svg_204" stroke="#0D0F0F" stroke-linecap="round" stroke-linejoin="round" stroke-miterlimit="8" stroke-width="0.75" x1="154.83" x2="154.83" y1="191.15" y2="46.91"/>
 </g>
</svg>